<svg width="212" height="30" viewBox="0 0 212 30" fill="none" xmlns="http://www.w3.org/2000/svg">
<path d="M109.843 26.0113L118.372 9.43876C118.728 8.73772 119.041 8.38813 119.309 8.38813C119.555 8.38813 119.856 8.73772 120.212 9.43876L128.642 26.0113H132.389L123.023 7.6011C122.688 6.96736 122.392 6.43083 122.137 5.99338C121.88 5.55593 121.651 5.22691 121.451 5.00819C120.895 4.39501 120.169 4.03421 119.277 3.92578C118.385 4.03608 117.659 4.4081 117.103 5.04184C116.68 5.52228 116.156 6.37662 115.531 7.6011L106.131 26.0113H109.843Z" fill="#555770"/>
<path d="M80.6386 7.53567V25.9459H76.9248V3.86035H90.1375C98.8342 3.86035 103.183 7.54688 103.183 14.9199V25.9795H99.4021V14.8863C99.4021 9.9865 96.2808 7.53567 90.0365 7.53567H80.6386Z" fill="#555770"/>
<path d="M74.2843 3.89258H70.5381V25.9463H74.2843V3.89258Z" fill="#555770"/>
<path d="M67.5937 16.7896V13.1143H41.334V25.9461H45.0802V16.7896H67.5937Z" fill="#555770"/>
<path d="M67.5937 3.89258H41.334V7.56789H67.5937V3.89258Z" fill="#555770"/>
<path d="M208.256 7.79596H198.982C192.787 7.79596 189.674 10.2337 189.674 15.0756C189.674 19.9511 192.787 22.3869 198.982 22.3869H212V25.9613H199.016C194.678 25.9613 191.398 25.0845 189.245 23.2955C187.092 21.5083 185.998 18.7789 185.998 15.1055C185.998 7.79409 190.304 4.1543 198.915 4.1543H212V7.89504L208.256 7.79596Z" fill="#555770"/>
<path d="M183.081 22.4199H157.078V26.0597H183.081V22.4199Z" fill="#555770"/>
<path d="M183.081 4.18945H157.078V7.82925H183.081V4.18945Z" fill="#555770"/>
<path d="M183.081 13.3213H157.078V16.9611H183.081V13.3213Z" fill="#555770"/>
<path d="M128.162 4.18945H154.165V7.82925H143.035V26.0282H139.357V7.82925H128.162V4.18945Z" fill="#555770"/>
<path d="M21.027 6.31332C21.3281 6.29836 21.6196 6.29088 21.9016 6.29088C22.2275 6.28528 22.538 6.29275 22.8372 6.31145C22.8391 6.33014 22.841 6.34697 22.8429 6.36566L22.8486 6.42174C22.8677 6.62925 22.8772 6.84424 22.8772 7.07605C22.8772 8.43326 22.5133 9.92133 21.7968 11.4935C21.7892 11.5085 21.7835 11.5253 21.7758 11.5403C21.4691 11.4842 21.1432 11.4543 20.8021 11.4543C20.261 11.4543 19.6817 11.5309 19.0605 11.6992C17.6333 12.0861 17.0312 13.1854 17.0312 14.3313C17.0312 15.883 18.1421 17.5169 19.8151 17.5617C19.3578 17.6851 18.7385 17.7524 18.0906 17.7524C17.0597 17.7524 15.9546 17.5823 15.2933 17.1934C11.7396 15.5035 12.7076 6.70777 21.027 6.31332Z" fill="#555770"/>
<path d="M23.4547 7.07766C23.4547 6.82902 23.4451 6.59721 23.4223 6.36914C25.505 6.62525 27.0008 7.4908 28.0488 8.58256C28.0831 8.73585 28.1117 8.88728 28.1327 9.04057C28.1708 9.30229 28.1898 9.56588 28.1898 9.82573C28.1898 12.542 26.1929 14.5049 26.1852 14.5124C26.1814 14.5162 26.1109 14.5666 25.9318 14.5666C25.8289 14.5666 25.7127 14.5498 25.5869 14.5162C25.5221 14.4993 25.4497 14.4769 25.3735 14.4489C24.8076 13.2057 23.7843 12.1364 22.3438 11.6858C23.0812 10.0538 23.4547 8.50404 23.4547 7.07766Z" fill="#555770"/>
<path d="M19.93 25.6305C18.276 26.1427 16.6983 26.44 15.1033 26.5334C14.8861 26.5465 14.6632 26.554 14.4174 26.5577C14.204 26.5652 13.9924 26.5652 13.7657 26.5596C13.4608 26.5559 13.1483 26.5428 12.8339 26.5222C12.7348 26.5166 12.6357 26.5091 12.5347 26.4998C12.4433 26.4942 12.3518 26.4848 12.2623 26.4774L12.2375 26.4736C12.1784 26.4699 12.1136 26.4643 12.0507 26.4568C11.5667 26.4044 11.0827 26.3353 10.5645 26.2455H10.6407C21.5458 26.2455 24.9433 20.6279 25.7017 18.0705C25.9723 17.1619 25.938 16.102 25.6236 15.1018C25.7284 15.1224 25.8332 15.1317 25.9323 15.1317C26.3477 15.1317 26.5459 14.9579 26.5783 14.9261C26.6678 14.8401 28.7677 12.7837 28.7677 9.82439C28.7677 9.6954 28.7639 9.56641 28.7543 9.43555C29.0859 9.90104 29.3508 10.389 29.5623 10.8713C29.5623 10.8731 29.5623 10.875 29.5642 10.8769C29.5985 11.0096 29.6499 11.305 29.6861 11.8453L29.6899 11.8845C29.6899 11.8901 29.6899 11.8976 29.6918 11.9032C29.6918 11.9144 29.6918 11.9275 29.6938 11.9425L29.6995 12.0191C29.7033 12.0677 29.7071 12.1275 29.7109 12.1892C29.7147 12.236 29.7166 12.2846 29.7185 12.3294C29.7185 12.3481 29.7185 12.365 29.7204 12.3855C29.8348 15.3766 29.1088 22.63 19.93 25.6305Z" fill="#555770"/>
<path d="M19.4869 29.5409C10.775 31.6048 5.21476 26.1741 3.33594 23.884C4.40873 24.686 6.35044 25.875 9.07911 26.5274C9.10769 26.533 9.13056 26.5386 9.15914 26.5461L9.1782 26.5498C9.84131 26.6938 10.855 26.8975 11.9831 27.0172C12.0498 27.0247 12.1184 27.0303 12.1832 27.0359L12.206 27.0377C12.2994 27.0471 12.3947 27.0564 12.4842 27.062C12.5871 27.0714 12.6938 27.0807 12.7967 27.0845C13.1169 27.1069 13.4408 27.12 13.7514 27.1237C13.8581 27.1256 13.9629 27.1275 14.0658 27.1275C14.1897 27.1275 14.3078 27.1256 14.4278 27.1219C14.6775 27.1181 14.908 27.1088 15.1348 27.0976C16.7773 27.0004 18.4008 26.6956 20.1024 26.1666C24.3193 24.7888 27.2861 22.3772 28.9287 18.9973C29.849 17.0998 30.1768 15.2322 30.2683 13.832C30.6265 17.7952 29.729 27.1163 19.4869 29.5409Z" fill="#555770"/>
<path d="M19.0358 22.551C17.822 23.2932 14.9161 24.8131 11.4424 24.8131C9.12153 24.8131 6.93211 24.1401 4.93515 22.8146C2.40655 21.134 0.773537 18.7093 0.20951 15.8061C-0.40025 12.6711 0.339083 9.21634 2.19123 6.54678C3.23735 4.84933 4.93705 3.28648 7.00071 2.11621C5.52204 3.19114 4.36731 4.62126 3.56319 6.36544L3.54985 6.39349C3.18018 7.24408 2.91151 8.16198 2.7705 9.06118C2.7 9.69492 2.69237 10.3268 2.74954 10.9568L2.75907 11.0203C2.76478 11.0671 2.77241 11.1138 2.77812 11.1493C2.78384 11.1849 2.78765 11.2222 2.79337 11.2428C2.80861 11.3494 2.82766 11.4522 2.84862 11.5531C2.8734 11.6859 2.90198 11.8149 2.93247 11.942C2.94771 12.0093 2.96486 12.0747 2.98201 12.1345L3.02965 12.3159C3.06585 12.4449 3.10587 12.572 3.14969 12.701L3.17256 12.7683C3.1859 12.8057 3.19924 12.8431 3.21067 12.8804C3.23354 12.944 3.2564 13.0076 3.27736 13.0618C3.47553 13.5815 3.72515 14.0993 4.02241 14.591C4.05481 14.6471 4.0891 14.7031 4.1215 14.7536C4.47783 15.3219 4.90656 15.8734 5.39247 16.3969C5.45916 16.4679 5.52585 16.5371 5.59064 16.6025C5.70687 16.7221 5.8212 16.8343 5.93553 16.9409C6.00413 17.0082 6.07654 17.0755 6.15466 17.1446C6.32235 17.2979 6.49575 17.4456 6.6863 17.6045L6.71679 17.6288C6.80063 17.6961 6.88828 17.7653 6.97212 17.8307C7.03882 17.8831 7.10741 17.9373 7.1703 17.984C7.22555 18.027 7.28272 18.0663 7.33798 18.1093C7.42563 18.1728 7.51329 18.2383 7.59713 18.2962C7.70193 18.3691 7.81054 18.4439 7.91725 18.5149C8.02586 18.5878 8.13638 18.6607 8.24309 18.728C8.35552 18.7991 8.46413 18.8701 8.57465 18.9356C8.68707 19.0028 8.79759 19.072 8.91192 19.1356C9.13486 19.2664 9.354 19.388 9.5617 19.4983C9.90659 19.6852 10.2629 19.8628 10.6192 20.031C10.7583 20.0965 10.8936 20.16 11.0213 20.2142L11.0689 20.2385L11.0785 20.2404C11.2614 20.3227 11.4481 20.4031 11.6349 20.4797C11.8254 20.562 12.0198 20.6423 12.218 20.719C12.2237 20.7209 12.2275 20.7227 12.2313 20.7246L12.2332 20.7209C15.061 21.8201 17.7687 22.3454 19.0358 22.551Z" fill="#555770"/>
<path d="M28.1899 9.8239C28.1899 12.5402 26.1929 14.5031 26.1853 14.5106C26.1815 14.5143 26.111 14.5648 25.9319 14.5648C25.829 14.5648 25.7127 14.548 25.587 14.5143C25.002 14.361 23.9425 13.8021 22.1971 12.0055C22.2409 11.9102 22.2847 11.8149 22.3267 11.7233C23.0736 10.0781 23.4547 8.51716 23.4547 7.0777C23.4547 6.82906 23.4452 6.59725 23.4223 6.36918L23.4166 6.31309C23.2927 5.02692 22.845 3.84357 22.0866 2.79668C21.2539 1.65071 19.6914 0.811336 17.441 0.29911C16.8198 0.157033 16.2348 0.0635609 15.7432 0C17.6715 0.10095 19.5199 0.581395 21.2443 1.42638C23.4261 2.49757 25.3774 4.14268 27.0313 6.30562C27.6335 7.19173 28.005 8.11149 28.1327 9.03874C28.1708 9.30046 28.1899 9.56405 28.1899 9.8239Z" fill="#555770"/>
<path d="M22.8122 6.1149C22.311 5.71484 21.6956 5.37087 21.0496 5.09232C20.1959 4.72217 19.2889 4.46606 18.5096 4.34641C13.1875 3.5276 7.93214 7.49268 7.93214 12.5308C7.93214 13.5777 8.15889 14.6713 8.66004 15.778C8.98016 16.4866 9.49846 17.496 10.1387 18.4102C10.4569 18.8645 10.8075 19.2963 11.1772 19.6552C11.0762 19.6104 10.9733 19.5636 10.8723 19.515C10.5236 19.3505 10.1787 19.1767 9.84145 18.9972C9.63756 18.8888 9.42605 18.771 9.20692 18.642C9.0964 18.5803 8.98969 18.5149 8.88108 18.4495C8.77627 18.3859 8.66957 18.3186 8.56286 18.2494C8.45806 18.184 8.35325 18.113 8.25036 18.0438C8.14746 17.9746 8.04266 17.9036 7.93595 17.8269C7.85401 17.7727 7.77017 17.711 7.69014 17.6512C7.63869 17.6138 7.58724 17.5746 7.52627 17.5278C7.46339 17.4811 7.3986 17.4344 7.33572 17.382C7.25378 17.3185 7.16994 17.2512 7.088 17.1857L7.05942 17.1633C6.8784 17.0137 6.71262 16.8717 6.54494 16.7165C6.48015 16.6585 6.41155 16.5968 6.34295 16.5295C6.23053 16.4267 6.12382 16.3202 6.0133 16.2043C5.95042 16.1407 5.88563 16.0753 5.82466 16.0098C5.36162 15.5144 4.95575 14.9891 4.61657 14.4507C4.58608 14.404 4.5556 14.3573 4.52511 14.303C4.245 13.8357 4.00872 13.3478 3.82007 12.8524C3.79911 12.8 3.78006 12.7458 3.7591 12.6879C3.74766 12.6523 3.73623 12.6187 3.72289 12.585L3.70193 12.5196C3.66192 12.3981 3.62571 12.2784 3.58951 12.1644L3.54378 11.9868C3.52663 11.927 3.51329 11.869 3.49804 11.8055C3.46756 11.6858 3.44278 11.5643 3.41801 11.4409C3.40086 11.3493 3.38181 11.2521 3.36466 11.14C3.36085 11.1194 3.35704 11.097 3.35323 11.0596C3.3456 11.0203 3.33989 10.9811 3.33417 10.9399L3.32655 10.8857C3.2751 10.3081 3.28082 9.71357 3.3456 9.13218C3.47899 8.29093 3.73242 7.41977 4.07541 6.62713L4.08684 6.6047C4.94051 4.75208 6.20004 3.28083 7.83115 2.23395C7.92833 2.17226 8.02741 2.11056 8.13222 2.04887C8.16842 2.02644 8.20653 2.00588 8.25607 1.9797C8.33039 1.93484 8.41042 1.89184 8.49045 1.84697L8.56476 1.80772C8.67147 1.75163 8.77818 1.69555 8.88489 1.64507L8.91538 1.63012C9.03542 1.57217 9.15166 1.51421 9.27552 1.46374L9.42605 1.40018C10.8552 0.813174 12.5072 0.489761 14.3194 0.435547C14.3327 0.435547 15.7199 0.484152 17.3129 0.846824C18.763 1.17771 20.6875 1.8395 21.6193 3.12006C22.2672 4.01926 22.6693 5.02502 22.8122 6.1149Z" fill="#555770"/>
</svg>
