<svg width="180" height="376" viewBox="0 0 180 376" fill="none" xmlns="http://www.w3.org/2000/svg">
<g clip-path="url(#clip0)">
<path d="M93.3412 341.753L63.8027 324.63V358.877L93.3412 376L122.88 358.877V324.63L93.3412 341.753Z" fill="#6DC4CB"/>
<path d="M93.3412 376L63.8027 358.877V324.63L93.3412 341.753V376Z" fill="#F5F4F5"/>
<path d="M122.88 358.877L93.3412 376V341.753L122.88 324.63V358.877Z" fill="#E0E0E0"/>
<path d="M93.3412 341.754L65.0799 325.376L63.8027 326.122L93.3412 343.246L122.88 326.122L121.591 325.376L93.3412 341.754Z" fill="white"/>
<path d="M117.481 331.624L99.019 342.325L96.6155 346.498L96.6503 357.361L119.93 343.863L119.896 333.011L117.481 331.624Z" fill="#1C3D73"/>
<path d="M117.527 346.358L99.0654 357.058L96.6619 361.231L96.6968 372.095L119.965 358.597L119.942 347.745L117.527 346.358Z" fill="#1C3D73"/>
<path d="M90.4849 312.006L60.9464 294.907L90.4849 312.006Z" fill="#575756"/>
<path d="M90.4849 312.006L60.9464 294.907" stroke="#878787" stroke-width="3" stroke-miterlimit="10"/>
<path d="M112.906 325.015L142.444 307.903" stroke="#878787" stroke-width="3" stroke-miterlimit="10"/>
<path d="M70.8274 326.787L41.2889 343.91" stroke="#878787" stroke-width="3" stroke-miterlimit="10"/>
<path d="M125.678 355.322L96.1395 338.21L125.678 355.322Z" fill="#575756"/>
<path d="M125.678 355.322L96.1395 338.21" stroke="#878787" stroke-width="3" stroke-miterlimit="10"/>
<path d="M93.3412 341.754L63.8027 324.63L93.3412 307.519L122.88 324.63L93.3412 341.754Z" fill="#F5F4F5"/>
<path d="M106.171 317.66L81.3121 332.067L91.3092 337.907H96.4181L116.145 326.472L116.169 323.5L106.171 317.66Z" fill="#1C3D73"/>
<path d="M92.8303 309.885L67.9711 324.281L77.9566 330.109L83.077 330.12L102.793 318.686L102.816 315.701L92.8303 309.885Z" fill="#1C3D73"/>
<path d="M87.3859 342.371L68.8778 331.647L66.4628 333.035L66.4279 343.922L89.7545 357.431L89.7893 346.544L87.3859 342.371Z" fill="#1C3D73"/>
<path d="M87.3383 357.047L68.8419 346.323L66.4152 347.71L66.392 358.597L89.707 372.107L89.7418 361.22L87.3383 357.047Z" fill="#1C3D73"/>
<path d="M66.1017 326.052L64.0349 324.724L94.3281 276.921L91.7737 197.482L94.2236 197.401L96.8013 277.608L66.1017 326.052Z" fill="white"/>
<path d="M94.3049 341.672L91.8666 341.579L94.5139 272.643L122.009 324.922L119.849 326.064L96.6155 281.886L94.3049 341.672Z" fill="white"/>
<path d="M90.7403 169.332L78.6532 227.952C78.6532 227.952 78.3746 240.996 94.7577 241.765C111.652 242.558 112.093 227.218 112.093 227.218L96.6387 169.332H90.7403Z" fill="#1C3D73"/>
<path d="M177.376 111.993C188.971 63.5115 159.22 14.7735 110.927 3.13399C62.6334 -8.50549 14.0849 21.3612 2.49073 69.8431C-9.10348 118.325 20.6471 167.063 68.9404 178.703C117.234 190.342 165.782 160.475 177.376 111.993Z" fill="#C8E7EF"/>
<path d="M141.364 122.97C167.524 86.0972 161.577 36.7899 128.081 12.8393C94.5846 -11.1113 46.2234 -0.635719 20.0631 36.2372C-6.09713 73.1102 -0.150021 122.417 33.3463 146.368C66.8427 170.319 115.204 159.843 141.364 122.97Z" fill="url(#paint0_radial)"/>
</g>
<defs>
<radialGradient id="paint0_radial" cx="0" cy="0" r="1" gradientUnits="userSpaceOnUse" gradientTransform="translate(69.2031 48.9074) scale(103.222 103.625)">
<stop stop-color="white"/>
<stop offset="1" stop-color="#C8E7EF"/>
</radialGradient>
<clipPath id="clip0">
<rect width="179.751" height="376" fill="white"/>
</clipPath>
</defs>
</svg>
