<svg width="149" height="106" viewBox="0 0 149 106" fill="none" xmlns="http://www.w3.org/2000/svg">
<path d="M37.9627 28.0288C40.543 27.8675 42.9942 28.1578 45.3488 28.8029C46.1229 29.0286 46.8969 29.2867 47.671 29.577V28.3513C47.5743 28.3191 47.4775 28.2868 47.3808 28.2546C46.7034 28.061 46.0261 27.8675 45.3488 27.7385C40.6075 26.7709 35.6404 27.4805 31.4474 29.0286C22.4809 32.2863 17.3203 40.2207 16.5139 48.6389C15.256 61.4759 23.5452 73.055 35.6404 77.248C38.769 78.3446 42.0589 78.6671 45.3488 78.3768C46.1229 78.3123 46.8969 78.2156 47.671 78.0866V77.506C46.9292 77.6028 46.1551 77.6995 45.3488 77.7318C44.0586 77.7963 42.7685 77.7318 41.4138 77.5705C38.382 77.2157 35.6081 76.0223 33.1569 74.4419C37.6401 75.8611 41.6073 76.2481 45.381 75.732C46.1551 75.6353 46.9292 75.474 47.7033 75.3128V74.6999C46.9615 74.8934 46.1874 75.0225 45.381 75.1192C43.1555 75.4095 40.8332 75.345 38.4142 74.8612C36.2532 74.4419 34.2212 73.7001 32.3828 72.7002C37.2208 73.8936 41.4461 73.9581 45.381 73.0872C46.1551 72.926 46.9292 72.7002 47.7033 72.4744V71.7326C46.9292 71.9906 46.1874 72.2164 45.381 72.4099C41.6396 73.2808 37.6401 73.184 33.4471 71.8293C27.1254 69.7328 23.3195 63.6046 22.5454 57.0571C21.3842 47.123 28.3833 35.6729 38.4465 33.2861C40.801 32.7378 43.1233 32.6088 45.381 32.8346C46.1551 32.8991 46.9292 33.0281 47.7033 33.1894V32.2218C46.9292 32.125 46.1551 32.0605 45.381 32.0282C41.7686 31.867 38.0917 32.512 34.7695 33.9635C25.6417 37.9952 20.6747 46.5424 20.6747 55.3799C20.4811 54.0898 20.4166 52.7996 20.4489 51.5095C20.6747 40.382 30.0605 30.7703 41.2203 30.2865C42.6717 30.222 44.0586 30.3188 45.4133 30.5446C46.1874 30.6736 46.9615 30.8349 47.7355 31.0606V30.3511C46.9937 30.1898 46.2196 30.0608 45.4133 29.964C42.1879 29.5447 38.8335 29.706 35.5436 30.7381C24.9322 34.0602 18.4814 43.5106 18.5459 53.477C18.2879 51.7675 18.1911 50.0258 18.2879 48.2841C18.9007 37.8984 27.577 28.6739 37.9627 28.0288ZM112.759 28.4158C109.63 27.3837 106.341 27.0289 103.051 27.2869C102.277 27.3515 101.503 27.4482 100.728 27.5772V28.1901C101.47 28.0933 102.244 28.0288 103.051 28.0288C104.889 27.9965 106.792 28.1901 108.76 28.6416C110.695 29.0932 112.469 29.8027 114.114 30.7381C110.534 29.706 106.76 29.4157 103.051 29.8995C102.277 29.9963 101.503 30.1253 100.728 30.2865V30.8671C101.47 30.6736 102.244 30.5446 103.051 30.4478C105.276 30.1575 107.631 30.222 110.05 30.6736C112.759 31.1896 115.243 32.2218 117.468 33.6409C112.791 31.996 107.953 31.4799 103.051 32.5121C102.277 32.6733 101.503 32.8668 100.728 33.1249V33.7377C101.47 33.4797 102.244 33.2539 103.051 33.1249C107.373 32.254 112.049 32.8668 115.726 34.3183C121.919 36.7373 125.596 43.3493 125.822 50.7354C126.144 60.8631 118.21 71.3133 107.986 72.8615C106.308 73.1195 104.663 73.1517 103.051 72.9905C102.277 72.926 101.503 72.797 100.728 72.6357V73.5388C101.503 73.6678 102.277 73.7323 103.051 73.7646C106.47 73.9258 109.856 73.3453 113.017 72.0229C122.758 67.9266 128.176 58.2183 127.596 48.8647C127.918 50.5419 128.08 52.2836 128.047 54.0253C127.822 65.1528 118.436 75.087 107.276 75.345C105.825 75.3773 104.405 75.2482 103.051 75.0225C102.277 74.8935 101.503 74.6999 100.728 74.4741V75.2805C101.47 75.474 102.244 75.603 103.051 75.732C106.018 76.1513 109.179 76.0223 112.566 75.0547C122.758 72.1841 129.434 62.9596 129.918 53.5415C130.079 55.1864 130.112 56.8636 129.918 58.5408C128.757 69.4103 119.113 78.1511 108.244 77.8608C106.437 77.8285 104.696 77.5383 103.018 77.0867C102.244 76.8609 101.47 76.6029 100.696 76.3126V77.4092C101.438 77.635 102.212 77.8285 103.018 77.9898C106.631 78.7316 110.501 78.6349 114.662 77.4737C124.499 74.6999 130.724 66.2817 131.821 57.1216C133.337 44.5749 124.79 32.4475 112.759 28.4158Z" fill="white"/>
<path d="M100.728 27.5771V28.19C93.6004 29.1253 87.4399 33.5118 82.2793 39.0595C73.7966 48.155 67.2491 59.6374 57.2181 67.217C54.0895 69.5715 50.9609 71.3455 47.6388 72.4098V71.668C52.3801 70.0553 56.7021 66.959 60.4758 63.0885C69.2165 54.1865 75.506 42.9622 85.1499 34.8665C89.6976 31.0928 95.1485 28.4803 100.728 27.5771Z" fill="white"/>
<path d="M100.728 30.2861V30.8667C93.6971 32.5439 87.7624 37.511 82.7953 43.2199C74.6997 52.509 67.8941 64.3461 57.2181 71.0226C54.025 73.0223 50.8964 74.4737 47.6388 75.2478V74.635C54.6701 72.9578 60.637 67.9585 65.6364 62.2496C73.7321 52.9605 80.6666 40.9944 91.2781 34.2211C94.3099 32.2859 97.5031 30.9957 100.728 30.2861Z" fill="white"/>
<path d="M100.728 33.1572V33.77C100.245 33.9313 99.7931 34.1248 99.3093 34.3506C94.955 36.3503 91.1168 39.2532 87.7624 42.6721C79.0217 51.5741 72.7644 63.1209 62.9271 70.9586C58.4115 74.5388 53.0574 77.119 47.6388 78.0867V77.5061C55.7345 76.345 62.2497 71.0876 67.7006 64.8304C75.7963 55.5413 82.7631 43.8977 93.2133 36.8664C95.7291 35.1247 98.2449 33.9313 100.728 33.1572Z" fill="white"/>
<path d="M98.6319 73.1515C97.4062 72.8612 96.2128 72.5064 95.0517 72.0549C96.8579 73.0548 98.7609 73.8934 100.728 74.4417V75.248C98.7609 74.7965 96.8579 74.0869 94.9872 73.2483C96.7934 74.4739 98.7286 75.506 100.728 76.2801V77.3768C93.1165 75.0545 86.6658 69.2166 81.0859 62.6691C80.1182 61.6369 79.1829 60.5403 78.2798 59.4759L79.5054 57.8955C85.0531 64.2172 92.2779 70.8938 100.728 72.6355V73.5386C100.019 73.4418 99.3415 73.3128 98.6319 73.1515Z" fill="white"/>
<path d="M70.1519 45.9943L68.894 47.607C63.3464 41.2853 56.0248 34.8346 47.6388 33.0929V32.222C48.3161 32.3188 49.0257 32.4478 49.6708 32.5768C51.3802 32.9638 53.0252 33.5122 54.6056 34.1572C52.3801 32.8026 50.0901 31.6737 47.6388 30.9964V30.2868C49.0257 30.5771 50.3804 30.9964 51.6705 31.4802C50.3481 30.7061 49.0257 30.061 47.6388 29.545V28.3516C54.7346 30.6416 60.4435 35.3829 65.3783 40.8338C67.0878 42.4464 68.6682 44.2204 70.1519 45.9943Z" fill="white"/>
<path d="M103.373 102.922V0H44.994V102.922H0V105.889H148.399V102.922H103.373ZM47.9935 2.96734H100.406V102.922H47.9935V2.96734Z" fill="white"/>
</svg>
