<svg width="764" height="121" viewBox="0 0 764 121" fill="none" xmlns="http://www.w3.org/2000/svg">
<path d="M71.0637 6.12793C79.74 6.12793 86.7068 13.2238 86.7068 21.771V46.0903C86.7068 54.6376 79.74 61.7333 71.0637 61.7333H15.6841C14.7165 61.7333 13.8779 61.6044 13.0393 61.4753V92.6647H0.0410156V6.12793H71.0637ZM73.7085 21.771C73.7085 20.3196 72.5151 19.1262 71.0637 19.1262H15.6841C14.2327 19.1262 13.0393 20.3196 13.0393 21.771V46.0903C13.0393 47.5418 14.2327 48.7351 15.6841 48.7351H71.0637C72.5151 48.7351 73.7085 47.5418 73.7085 46.0903V21.771Z" fill="#F4F4F4"/>
<path d="M171.663 38.5113V64.282H113.671V77.0544C113.671 78.5059 114.864 79.6993 116.316 79.6993H171.695V92.6975H116.316C107.639 92.6975 100.673 85.7307 100.673 77.0544V38.5435C100.673 29.8673 107.639 22.9005 116.316 22.9005H156.02C164.696 22.8682 171.663 29.835 171.663 38.5113ZM158.665 51.2515V38.479C158.665 37.0276 157.471 35.8342 156.02 35.8342H116.316C114.864 35.8342 113.671 37.0276 113.671 38.479V51.2515H158.665Z" fill="#F4F4F4"/>
<path d="M242.331 22.8682V35.8664H203.336C201.885 35.8664 200.692 37.0598 200.692 38.5112V92.6653H187.693V77.0222V38.5112C187.693 29.835 194.66 22.8682 203.336 22.8682H242.331Z" fill="#F4F4F4"/>
<path d="M326.223 79.667V92.6653H270.843C262.167 92.6653 255.2 85.6984 255.2 77.0222V38.5112C255.2 29.835 262.167 22.8682 270.843 22.8682H325.965V35.8664H270.843C269.392 35.8664 268.199 37.0598 268.199 38.5112V77.0222C268.199 78.4736 269.392 79.667 270.843 79.667H326.223Z" fill="#F4F4F4"/>
<path d="M414.082 38.5113V64.282H356.058V77.0544C356.058 78.5059 357.251 79.6993 358.702 79.6993H414.082V92.6975H358.702C350.026 92.6975 343.059 85.7307 343.059 77.0544V38.5435C343.059 29.8673 350.026 22.9005 358.702 22.9005H398.407C407.083 22.8682 414.082 29.835 414.082 38.5113ZM401.084 51.2515V38.479C401.084 37.0276 399.89 35.8342 398.439 35.8342H358.735C357.283 35.8342 356.09 37.0276 356.09 38.479V51.2515H401.084Z" fill="#F4F4F4"/>
<path d="M503.747 38.5113V77.0222C503.747 85.6985 496.781 92.6653 488.104 92.6653H445.723V120.339H432.725V22.8359H488.104C496.748 22.8682 503.747 29.835 503.747 38.5113ZM490.749 38.5113C490.749 37.0598 489.556 35.8664 488.104 35.8664H448.4C446.949 35.8664 445.755 37.0598 445.755 38.5113V77.0222C445.755 78.4736 446.949 79.667 448.4 79.667H488.104C489.556 79.667 490.749 78.4736 490.749 77.0222V38.5113Z" fill="#F4F4F4"/>
<path d="M531.55 35.8661V77.0219C531.55 78.4733 532.744 79.6667 534.195 79.6667H560.192V92.665H534.195C525.519 92.665 518.552 85.6982 518.552 77.0219V38.511V0H531.55V22.8679H560.192V35.8661H531.55Z" fill="#F4F4F4"/>
<path d="M586.769 0V12.9982H573.77V0H586.769ZM573.77 22.8679H586.769V92.665H573.77V22.8679Z" fill="#F4F4F4"/>
<path d="M660.081 22.8682C668.758 22.8682 675.724 29.835 675.724 38.5112V77.0222C675.724 85.6984 668.758 92.6653 660.081 92.6653H620.377C611.701 92.6653 604.734 85.6984 604.734 77.0222V38.5112C604.734 29.835 611.701 22.8682 620.377 22.8682H660.081ZM620.345 35.8664C618.893 35.8664 617.7 37.0598 617.7 38.5112V77.0222C617.7 78.4736 618.893 79.667 620.345 79.667H660.049C661.5 79.667 662.694 78.4736 662.694 77.0222V38.5112C662.694 37.0598 661.5 35.8664 660.049 35.8664H620.345Z" fill="#F4F4F4"/>
<path d="M763.584 38.5112V92.6653H750.585V38.5112C750.585 37.0598 749.392 35.8664 747.94 35.8664H708.236C706.785 35.8664 705.591 37.0598 705.591 38.5112V92.6653H692.593V22.8682H747.973C756.617 22.8682 763.584 29.835 763.584 38.5112Z" fill="#F4F4F4"/>
</svg>
