<svg width="384" height="263" viewBox="0 0 384 263" fill="none" xmlns="http://www.w3.org/2000/svg">
<path d="M126.871 50.3219C131.478 50.0166 135.891 50.5439 140.138 51.7097C141.526 52.0982 142.914 52.5423 144.274 53.0975V50.9046C144.107 50.8491 143.941 50.7938 143.746 50.7383C142.553 50.3775 141.332 50.0723 140.11 49.8225C131.589 48.1016 122.68 49.3783 115.158 52.1261C99.0874 57.9548 89.817 72.2213 88.3459 87.2927C86.0977 110.302 100.947 131.091 122.68 138.641C128.286 140.584 134.198 141.194 140.11 140.639C141.498 140.528 142.858 140.333 144.246 140.084V139.029C142.886 139.223 141.526 139.362 140.11 139.418C137.807 139.529 135.447 139.445 133.033 139.14C127.592 138.474 122.624 136.337 118.211 133.506C126.232 136.059 133.366 136.725 140.11 135.81C141.498 135.615 142.886 135.365 144.246 135.032V133.95C142.886 134.283 141.498 134.533 140.11 134.699C136.141 135.199 131.978 135.115 127.62 134.255C123.734 133.506 120.098 132.146 116.768 130.342C125.428 132.451 133.033 132.617 140.082 131.063C141.47 130.758 142.858 130.397 144.218 129.953V128.648C142.858 129.12 141.47 129.509 140.082 129.842C133.338 131.396 126.177 131.258 118.683 128.787C107.303 125.04 100.531 114.021 99.1428 102.253C97.0612 84.4335 109.607 63.8943 127.676 59.62C131.922 58.6208 136.058 58.3989 140.11 58.7875C141.498 58.9263 142.886 59.1483 144.246 59.4258V57.8436C142.858 57.6493 141.498 57.5386 140.11 57.4831C133.588 57.2055 127.037 58.3157 121.07 60.9525C104.694 68.169 95.7566 83.5178 95.7566 99.3663C95.4236 97.0626 95.2848 94.7589 95.3403 92.4274C95.7567 72.4433 112.577 55.2071 132.589 54.3467C135.198 54.2356 137.696 54.4019 140.11 54.7905C141.526 55.0126 142.914 55.3181 144.246 55.7067V54.4575C142.886 54.1521 141.498 53.9301 140.11 53.7358C134.337 52.9864 128.314 53.2917 122.374 55.1513C103.334 61.0911 91.7321 78.05 91.8987 95.9246C91.4268 92.8715 91.2603 89.7074 91.4546 86.5988C92.648 68.0302 108.247 51.4876 126.871 50.3219ZM261.07 50.988C255.491 49.1006 249.551 48.49 243.667 48.9619C242.279 49.0729 240.891 49.2396 239.531 49.4894V50.5994C240.891 50.4051 242.279 50.3219 243.667 50.2941C246.97 50.2108 250.384 50.5717 253.909 51.4044C257.35 52.2371 260.57 53.5138 263.54 55.1513C257.101 53.3195 250.356 52.7923 243.667 53.6528C242.279 53.8471 240.891 54.0688 239.531 54.3741V55.4014C240.891 55.0683 242.279 54.8185 243.667 54.6519C247.664 54.1246 251.855 54.2354 256.24 55.0958C261.125 56.0395 265.566 57.8993 269.535 60.4528C261.181 57.5107 252.465 56.567 243.667 58.4267C242.279 58.732 240.919 59.0928 239.531 59.5092V60.5917C240.891 60.1198 242.251 59.7589 243.667 59.4536C251.411 57.8715 259.848 59.0096 266.426 61.6186C277.529 65.9763 284.135 77.8279 284.551 91.0952C285.106 109.303 270.895 128.01 252.549 130.786C249.523 131.23 246.553 131.313 243.667 131.036C242.279 130.897 240.891 130.675 239.531 130.397V132.007C240.919 132.201 242.307 132.34 243.667 132.396C249.829 132.701 255.879 131.646 261.569 129.259C279.028 121.904 288.77 104.473 287.715 87.7087C288.326 90.7341 288.603 93.8429 288.548 96.9516C288.131 116.936 271.339 134.755 251.3 135.199C248.718 135.255 246.165 135.032 243.695 134.588C242.307 134.338 240.919 134.005 239.559 133.617V135.088C240.919 135.421 242.307 135.671 243.695 135.865C249.051 136.615 254.686 136.365 260.792 134.644C279.083 129.481 291.046 112.939 291.962 96.0076C292.267 98.9775 292.295 101.975 291.962 105.001C289.88 124.513 272.588 140.167 253.076 139.695C249.856 139.612 246.72 139.113 243.695 138.28C242.307 137.891 240.919 137.447 239.559 136.892V138.863C240.919 139.279 242.307 139.612 243.695 139.89C250.189 141.194 257.128 141.028 264.595 138.946C282.247 133.95 293.405 118.851 295.348 102.447C298.04 79.9928 282.691 58.2877 261.07 50.988Z" fill="#193F77"/>
<path d="M239.504 49.4902V50.6002C226.736 52.2655 215.661 60.176 206.391 70.1125C191.181 86.4051 179.413 107.028 161.455 120.628C155.848 124.875 150.214 128.039 144.274 129.954V128.649C152.767 125.763 160.511 120.184 167.339 113.273C183.048 97.2855 194.345 77.1626 211.609 62.6464C219.686 55.8463 229.512 51.1556 239.504 49.4902Z" fill="#018A40"/>
<path d="M239.504 54.374V55.4013C226.903 58.3989 216.245 67.3362 207.335 77.5503C192.791 94.2315 180.579 115.465 161.455 127.455C155.709 131.063 150.103 133.644 144.246 135.032V133.95C156.875 130.98 167.589 121.987 176.526 111.745C191.07 95.064 203.533 73.6366 222.517 61.4519C227.958 57.9824 233.703 55.623 239.504 54.374Z" fill="#018A40"/>
<path d="M239.504 59.4814V60.564C238.643 60.8693 237.81 61.2023 236.978 61.5909C229.178 65.1991 222.295 70.3895 216.272 76.5235C200.562 92.483 189.349 113.244 171.696 127.288C163.564 133.728 153.988 138.363 144.274 140.084V139.029C158.79 136.947 170.475 127.511 180.245 116.297C194.789 99.6161 207.307 78.7162 226.014 66.1151C230.511 63.062 235.035 60.897 239.504 59.4814Z" fill="#018A40"/>
<path d="M235.729 131.286C233.509 130.786 231.399 130.092 229.318 129.315C232.565 131.119 235.979 132.59 239.504 133.617V135.089C235.979 134.256 232.593 133.007 229.234 131.48C232.51 133.645 235.923 135.505 239.504 136.893V138.863C225.82 134.728 214.274 124.236 204.254 112.495C202.533 110.636 200.84 108.693 199.23 106.75L201.423 103.919C211.387 115.271 224.349 127.233 239.532 130.37V131.98C238.255 131.813 237.006 131.564 235.729 131.286Z" fill="#018A40"/>
<path d="M184.658 82.5736L182.41 85.4326C172.473 74.0527 159.317 62.5341 144.274 59.3977V57.8158C145.495 57.9823 146.744 58.2043 147.937 58.4819C151.018 59.1758 153.96 60.147 156.764 61.3405C152.767 58.898 148.659 56.8998 144.246 55.6785V54.4293C146.744 54.9844 149.159 55.7062 151.49 56.5943C149.159 55.2343 146.744 54.0408 144.246 53.0971V50.9043C156.958 54.9844 167.228 63.5333 176.109 73.3033C179.107 76.2177 181.966 79.354 184.658 82.5736Z" fill="#018A40"/>
<path d="M244.25 184.714V0H139.5V184.714H58.7312V190.071H325.019V184.714H244.25ZM144.885 5.357H238.921V184.714H144.885V5.357Z" fill="#193F77"/>
<path d="M35.7216 204.866C40.0792 204.866 43.6042 208.447 43.6042 212.749V224.989C43.6042 229.291 40.107 232.872 35.7216 232.872H7.88265C7.4108 232.872 6.96668 232.816 6.55034 232.76V248.443H0V204.922H35.7216V204.866ZM37.0539 212.749C37.0539 212.027 36.4433 211.417 35.7216 211.417H7.88265C7.161 211.417 6.55034 212.027 6.55034 212.749V224.989C6.55034 225.711 7.161 226.321 7.88265 226.321H35.7216C36.4433 226.321 37.0539 225.711 37.0539 224.989V212.749Z" fill="#193F77"/>
<path d="M86.3481 221.159V234.121H57.1768V240.532C57.1768 241.254 57.7874 241.865 58.5091 241.865H86.3481V248.415H58.5091C54.1514 248.415 50.6265 244.89 50.6265 240.56V221.187C50.6265 216.829 54.1237 213.304 58.5091 213.304H78.4932C82.823 213.276 86.3481 216.801 86.3481 221.159ZM79.7977 227.57V221.159C79.7977 220.437 79.1871 219.827 78.4655 219.827H58.4813C57.7597 219.827 57.1491 220.437 57.1491 221.159V227.57H79.7977Z" fill="#193F77"/>
<path d="M121.875 213.275V219.826H102.252C101.53 219.826 100.92 220.437 100.92 221.158V248.386H94.3691V240.532V221.158C94.3691 216.801 97.8941 213.275 102.252 213.275H121.875Z" fill="#193F77"/>
<path d="M164.064 241.864V248.415H136.225C131.867 248.415 128.342 244.89 128.342 240.56V221.187C128.342 216.829 131.839 213.304 136.225 213.304H163.953V219.854H136.225C135.503 219.854 134.892 220.465 134.892 221.187V240.56C134.892 241.282 135.503 241.892 136.225 241.892H164.064V241.864Z" fill="#193F77"/>
<path d="M208.251 221.159V234.121H179.08V240.532C179.08 241.254 179.69 241.865 180.412 241.865H208.251V248.415H180.412C176.054 248.415 172.529 244.89 172.529 240.56V221.187C172.529 216.829 176.027 213.304 180.412 213.304H200.396C204.726 213.276 208.251 216.801 208.251 221.159ZM201.701 227.57V221.159C201.701 220.437 201.09 219.827 200.368 219.827H180.384C179.663 219.827 179.052 220.437 179.052 221.159V227.57H201.701Z" fill="#193F77"/>
<path d="M253.326 221.158V240.532C253.326 244.889 249.801 248.386 245.443 248.386H224.127V262.32H217.577V213.275H245.416C249.829 213.275 253.326 216.801 253.326 221.158ZM246.804 221.158C246.804 220.437 246.193 219.826 245.471 219.826H225.487C224.766 219.826 224.155 220.437 224.155 221.158V240.532C224.155 241.253 224.766 241.864 225.487 241.864H245.471C246.193 241.864 246.804 241.253 246.804 240.532V221.158Z" fill="#193F77"/>
<path d="M267.315 219.827V240.533C267.315 241.254 267.926 241.865 268.647 241.865H281.72V248.415H268.647C264.29 248.415 260.792 244.89 260.792 240.56V221.187V201.813H267.343V213.304H281.748V219.855H267.315V219.827Z" fill="#193F77"/>
<path d="M295.098 201.785V208.335H288.576V201.785H295.098ZM288.548 213.276H295.071V248.387H288.548V213.276Z" fill="#193F77"/>
<path d="M331.958 213.275C336.316 213.275 339.841 216.801 339.841 221.158V240.532C339.841 244.889 336.316 248.386 331.958 248.386H311.974C307.616 248.386 304.091 244.862 304.091 240.532V221.158C304.091 216.801 307.616 213.275 311.974 213.275H331.958ZM311.974 219.826C311.252 219.826 310.642 220.437 310.642 221.158V240.532C310.642 241.253 311.252 241.864 311.974 241.864H331.958C332.68 241.864 333.29 241.253 333.29 240.532V221.158C333.29 220.437 332.68 219.826 331.958 219.826H311.974Z" fill="#193F77"/>
<path d="M384 221.158V248.386H377.45V221.158C377.45 220.437 376.839 219.826 376.118 219.826H356.133C355.412 219.826 354.801 220.437 354.801 221.158V248.386H348.251V213.275H376.09C380.503 213.275 384 216.801 384 221.158Z" fill="#193F77"/>
</svg>
