<svg width="439" height="299" viewBox="0 0 439 299" fill="none" xmlns="http://www.w3.org/2000/svg">
<g clip-path="url(#clip0)">
<path opacity="0.1" d="M180.419 294.595C210.092 278.162 243.989 272.91 277.116 279.954C324.057 289.941 383.053 286.026 394.481 208.976C413.997 77.385 332.212 42.6532 332.212 42.6532C332.212 42.6532 277.825 38.095 245.664 20.7407C199.982 -3.91914 147.766 -7.05941 101.853 13.8051C72.4912 27.1368 48.3122 45.701 44.1809 71.1892C32.6304 142.471 51.6002 181.746 16.1132 205.015C-19.3738 228.284 10.954 292.168 38.1593 289.956C65.3646 287.745 126.84 263.482 150.796 291.586C159.305 301.554 170.07 300.329 180.419 294.595Z" fill="#003A7A"/>
<path opacity="0.1" d="M321.208 57.8773H198.773V66.3541H321.208V57.8773Z" fill="#003A7A"/>
<path opacity="0.1" d="M321.208 94.4818H198.773V102.959H321.208V94.4818Z" fill="#003A7A"/>
<path opacity="0.1" d="M321.208 132.627H198.773V141.104H321.208V132.627Z" fill="#003A7A"/>
<path opacity="0.1" d="M217.254 35.9147H209.553V57.8773H217.254V35.9147Z" fill="#003A7A"/>
<path opacity="0.1" d="M217.254 39.3825H209.553V40.9237H217.254V39.3825Z" fill="#003A7A"/>
<path opacity="0.1" d="M217.254 51.3271H209.553V52.8683H217.254V51.3271Z" fill="#003A7A"/>
<path opacity="0.1" d="M228.804 35.9147H221.104V57.8773H228.804V35.9147Z" fill="#003A7A"/>
<path opacity="0.1" d="M228.804 39.3825H221.104V40.9237H228.804V39.3825Z" fill="#003A7A"/>
<path opacity="0.1" d="M228.804 51.3271H221.104V52.8683H228.804V51.3271Z" fill="#003A7A"/>
<path opacity="0.1" d="M240.354 35.9147H232.654V57.8773H240.354V35.9147Z" fill="#003A7A"/>
<path opacity="0.1" d="M240.354 39.3825H232.654V40.9237H240.354V39.3825Z" fill="#003A7A"/>
<path opacity="0.1" d="M240.354 51.3271H232.654V52.8683H240.354V51.3271Z" fill="#003A7A"/>
<path opacity="0.1" d="M251.905 35.9147H244.205V57.8773H251.905V35.9147Z" fill="#003A7A"/>
<path opacity="0.1" d="M251.905 39.3825H244.205V40.9237H251.905V39.3825Z" fill="#003A7A"/>
<path opacity="0.1" d="M251.905 51.3271H244.205V52.8683H251.905V51.3271Z" fill="#003A7A"/>
<path opacity="0.1" d="M263.455 35.9147H255.755V57.8773H263.455V35.9147Z" fill="#003A7A"/>
<path opacity="0.1" d="M263.455 39.3825H255.755V40.9237H263.455V39.3825Z" fill="#003A7A"/>
<path opacity="0.1" d="M263.455 51.3271H255.755V52.8683H263.455V51.3271Z" fill="#003A7A"/>
<path opacity="0.1" d="M275.006 35.9147H267.306V57.8773H275.006V35.9147Z" fill="#003A7A"/>
<path opacity="0.1" d="M275.006 39.3825H267.306V40.9237H275.006V39.3825Z" fill="#003A7A"/>
<path opacity="0.1" d="M275.006 51.3271H267.306V52.8683H275.006V51.3271Z" fill="#003A7A"/>
<path opacity="0.1" d="M286.557 35.9147H278.856V57.8773H286.557V35.9147Z" fill="#003A7A"/>
<path opacity="0.1" d="M286.557 39.3825H278.856V40.9237H286.557V39.3825Z" fill="#003A7A"/>
<path opacity="0.1" d="M286.557 51.3271H278.856V52.8683H286.557V51.3271Z" fill="#003A7A"/>
<path opacity="0.1" d="M281.998 110.087L275.114 113.541L284.951 133.174L291.835 129.719L281.998 110.087Z" fill="#003A7A"/>
<path opacity="0.1" d="M283.553 113.189L276.67 116.643L277.36 118.021L284.243 114.567L283.553 113.189Z" fill="#003A7A"/>
<path opacity="0.1" d="M288.9 123.868L282.016 127.322L282.707 128.7L289.59 125.246L288.9 123.868Z" fill="#003A7A"/>
<path opacity="0.1" d="M217.254 72.9044H209.553V94.867H217.254V72.9044Z" fill="#003A7A"/>
<path opacity="0.1" d="M217.254 76.3722H209.553V77.9134H217.254V76.3722Z" fill="#003A7A"/>
<path opacity="0.1" d="M217.254 88.3168H209.553V89.858H217.254V88.3168Z" fill="#003A7A"/>
<path opacity="0.1" d="M228.804 72.9044H221.104V94.867H228.804V72.9044Z" fill="#003A7A"/>
<path opacity="0.1" d="M228.804 76.3722H221.104V77.9134H228.804V76.3722Z" fill="#003A7A"/>
<path opacity="0.1" d="M228.804 88.3168H221.104V89.858H228.804V88.3168Z" fill="#003A7A"/>
<path opacity="0.1" d="M240.354 72.9044H232.654V94.867H240.354V72.9044Z" fill="#003A7A"/>
<path opacity="0.1" d="M240.354 76.3722H232.654V77.9134H240.354V76.3722Z" fill="#003A7A"/>
<path opacity="0.1" d="M240.354 88.3168H232.654V89.858H240.354V88.3168Z" fill="#003A7A"/>
<path opacity="0.1" d="M288.482 72.9044H280.781V94.867H288.482V72.9044Z" fill="#003A7A"/>
<path opacity="0.1" d="M288.482 76.3722H280.781V77.9134H288.482V76.3722Z" fill="#003A7A"/>
<path opacity="0.1" d="M288.482 88.3168H280.781V89.858H288.482V88.3168Z" fill="#003A7A"/>
<path opacity="0.1" d="M300.032 72.9044H292.332V94.867H300.032V72.9044Z" fill="#003A7A"/>
<path opacity="0.1" d="M300.032 76.3722H292.332V77.9134H300.032V76.3722Z" fill="#003A7A"/>
<path opacity="0.1" d="M300.032 88.3168H292.332V89.858H300.032V88.3168Z" fill="#003A7A"/>
<path opacity="0.1" d="M311.583 72.9044H303.882V94.867H311.583V72.9044Z" fill="#003A7A"/>
<path opacity="0.1" d="M311.583 76.3722H303.882V77.9134H311.583V76.3722Z" fill="#003A7A"/>
<path opacity="0.1" d="M311.583 88.3168H303.882V89.858H311.583V88.3168Z" fill="#003A7A"/>
<path opacity="0.1" d="M217.254 110.665H209.553V132.627H217.254V110.665Z" fill="#003A7A"/>
<path opacity="0.1" d="M217.254 114.132H209.553V115.674H217.254V114.132Z" fill="#003A7A"/>
<path opacity="0.1" d="M217.254 126.077H209.553V127.618H217.254V126.077Z" fill="#003A7A"/>
<path opacity="0.1" d="M228.804 110.665H221.104V132.627H228.804V110.665Z" fill="#003A7A"/>
<path opacity="0.1" d="M228.804 114.132H221.104V115.674H228.804V114.132Z" fill="#003A7A"/>
<path opacity="0.1" d="M228.804 126.077H221.104V127.618H228.804V126.077Z" fill="#003A7A"/>
<path opacity="0.1" d="M240.354 110.665H232.654V132.627H240.354V110.665Z" fill="#003A7A"/>
<path opacity="0.1" d="M240.354 114.132H232.654V115.674H240.354V114.132Z" fill="#003A7A"/>
<path opacity="0.1" d="M240.354 126.077H232.654V127.618H240.354V126.077Z" fill="#003A7A"/>
<path opacity="0.1" d="M251.905 110.665H244.205V132.627H251.905V110.665Z" fill="#003A7A"/>
<path opacity="0.1" d="M251.905 114.132H244.205V115.674H251.905V114.132Z" fill="#003A7A"/>
<path opacity="0.1" d="M251.905 126.077H244.205V127.618H251.905V126.077Z" fill="#003A7A"/>
<path opacity="0.1" d="M263.455 110.665H255.755V132.627H263.455V110.665Z" fill="#003A7A"/>
<path opacity="0.1" d="M263.455 114.132H255.755V115.674H263.455V114.132Z" fill="#003A7A"/>
<path opacity="0.1" d="M263.455 126.077H255.755V127.618H263.455V126.077Z" fill="#003A7A"/>
<path opacity="0.1" d="M275.006 110.665H267.306V132.627H275.006V110.665Z" fill="#003A7A"/>
<path opacity="0.1" d="M275.006 114.132H267.306V115.674H275.006V114.132Z" fill="#003A7A"/>
<path opacity="0.1" d="M275.006 126.077H267.306V127.618H275.006V126.077Z" fill="#003A7A"/>
<path opacity="0.1" d="M298.107 37.8721V57.8773H290.406V36.4041C292.984 36.8587 295.55 37.3481 298.107 37.8721Z" fill="#003A7A"/>
<path opacity="0.1" d="M298.107 39.3825H290.407V40.9237H298.107V39.3825Z" fill="#003A7A"/>
<path opacity="0.1" d="M298.107 51.3271H290.407V52.8683H298.107V51.3271Z" fill="#003A7A"/>
<path opacity="0.1" d="M309.657 40.5461V57.8851H301.957V38.6967C302.958 38.9163 303.955 39.1475 304.952 39.3825C306.528 39.7524 308.097 40.1403 309.657 40.5461Z" fill="#003A7A"/>
<path opacity="0.1" d="M309.657 40.5461V40.9314H301.957V39.3901H304.952C306.528 39.7549 308.097 40.1402 309.657 40.5461Z" fill="#003A7A"/>
<path opacity="0.1" d="M309.657 51.3271H301.957V52.8683H309.657V51.3271Z" fill="#003A7A"/>
<g opacity="0.1">
<path opacity="0.1" d="M255.905 86.8834C255.905 86.8834 253.572 86.0897 252.44 88.1511C252.144 88.7091 251.994 89.3329 252.002 89.9646C252.011 90.5963 252.179 91.2157 252.49 91.7653C253.229 93.0984 254.75 94.8477 257.63 94.6782C260.075 94.5472 260.887 92.6823 261.095 90.9446C261.175 90.2946 261.088 89.6349 260.842 89.028C260.596 88.421 260.2 87.8868 259.691 87.4757C259.181 87.0646 258.576 86.7903 257.931 86.6786C257.286 86.5668 256.623 86.6214 256.005 86.8372L255.905 86.8834Z" fill="#003A7A"/>
<path opacity="0.1" d="M252.998 91.9541C252.687 91.4044 252.519 90.7851 252.511 90.1534C252.502 89.5216 252.652 88.8979 252.948 88.3399C254.073 86.2823 256.414 87.0722 256.414 87.0722L256.533 87.0298C257.424 86.7072 258.403 86.7292 259.278 87.0915C258.795 86.8035 258.254 86.6264 257.694 86.5731C257.134 86.5198 256.569 86.5916 256.04 86.7832L255.921 86.8256C255.921 86.8256 253.588 86.0319 252.456 88.0933C252.16 88.6513 252.009 89.2751 252.018 89.9068C252.026 90.5385 252.194 91.1579 252.506 91.7075C253.084 92.8114 254.013 93.6911 255.147 94.2081C254.238 93.6677 253.495 92.888 252.998 91.9541V91.9541Z" fill="#003A7A"/>
<path opacity="0.2" d="M254.7 87.8737C254.7 87.8737 255.567 88.5556 257.669 87.8737Z" fill="#003A7A"/>
<path opacity="0.1" d="M254.511 82.9224C254.511 82.9224 255.994 86.9451 255.871 87.9969L257.045 87.8736C257.045 87.8736 255.066 84.3481 255.563 82.9224H254.511Z" fill="#003A7A"/>
<path opacity="0.2" d="M254.511 82.9224C254.511 82.9224 255.994 86.9451 255.871 87.9969L257.045 87.8736C257.045 87.8736 255.066 84.3481 255.563 82.9224H254.511Z" fill="#003A7A"/>
<path opacity="0.1" d="M260.572 83.2615C260.572 83.2615 258.235 82.067 257.191 83.0534C256.148 84.0398 255.986 86.5636 255.986 86.5636C255.986 86.5636 259.794 87.0799 260.572 83.2615Z" fill="#003A7A"/>
<path opacity="0.1" d="M260.572 83.2615C260.572 83.2615 258.235 82.067 257.191 83.0534C256.148 84.0398 255.986 86.5636 255.986 86.5636C255.986 86.5636 259.794 87.0799 260.572 83.2615Z" fill="#003A7A"/>
<path opacity="0.1" d="M255.982 86.5636C255.982 86.5636 256.595 83.6353 260.568 83.2577Z" fill="#003A7A"/>
</g>
<g opacity="0.1">
<path opacity="0.1" d="M305.187 125.029C305.187 125.029 302.854 124.235 301.722 126.297C301.426 126.855 301.276 127.478 301.284 128.11C301.293 128.742 301.461 129.361 301.772 129.911C302.511 131.244 304.032 132.993 306.912 132.824C309.357 132.693 310.169 130.828 310.377 129.09C310.457 128.44 310.37 127.781 310.124 127.174C309.878 126.567 309.482 126.032 308.973 125.621C308.463 125.21 307.857 124.936 307.213 124.824C306.568 124.712 305.905 124.767 305.287 124.983L305.187 125.029Z" fill="#003A7A"/>
<path opacity="0.1" d="M302.28 130.1C301.969 129.55 301.801 128.931 301.792 128.299C301.784 127.667 301.934 127.044 302.23 126.486C303.355 124.428 305.696 125.218 305.696 125.218L305.815 125.175C306.706 124.853 307.685 124.875 308.56 125.237C308.077 124.949 307.536 124.772 306.976 124.719C306.416 124.666 305.851 124.737 305.322 124.929L305.203 124.971C305.203 124.971 302.869 124.178 301.738 126.239C301.442 126.797 301.291 127.421 301.3 128.052C301.308 128.684 301.476 129.304 301.788 129.853C302.366 130.957 303.295 131.837 304.429 132.354C303.52 131.813 302.777 131.034 302.28 130.1V130.1Z" fill="#003A7A"/>
<path opacity="0.2" d="M303.982 126.019C303.982 126.019 304.848 126.701 306.951 126.019Z" fill="#003A7A"/>
<path opacity="0.1" d="M303.793 121.068C303.793 121.068 305.276 125.091 305.153 126.143L306.327 126.019C306.327 126.019 304.348 122.494 304.845 121.068H303.793Z" fill="#003A7A"/>
<path opacity="0.2" d="M303.793 121.068C303.793 121.068 305.276 125.091 305.153 126.143L306.327 126.019C306.327 126.019 304.348 122.494 304.845 121.068H303.793Z" fill="#003A7A"/>
<path opacity="0.1" d="M309.854 121.407C309.854 121.407 307.517 120.213 306.473 121.199C305.43 122.185 305.268 124.709 305.268 124.709C305.268 124.709 309.076 125.226 309.854 121.407Z" fill="#003A7A"/>
<path opacity="0.1" d="M309.854 121.407C309.854 121.407 307.517 120.213 306.473 121.199C305.43 122.185 305.268 124.709 305.268 124.709C305.268 124.709 309.076 125.226 309.854 121.407Z" fill="#003A7A"/>
<path opacity="0.1" d="M305.264 124.709C305.264 124.709 305.877 121.781 309.85 121.403Z" fill="#003A7A"/>
</g>
<path opacity="0.1" d="M383.1 242.76C394.582 242.76 403.89 239.448 403.89 235.362C403.89 231.277 394.582 227.964 383.1 227.964C371.617 227.964 362.309 231.277 362.309 235.362C362.309 239.448 371.617 242.76 383.1 242.76Z" fill="black"/>
<path d="M383.115 235.424C383.115 235.424 394.977 195.124 380.89 165.46C374.98 153.01 373.016 139.035 375.746 125.526C377.052 119.118 378.943 112.843 381.394 106.781" stroke="#535461" stroke-width="2" stroke-miterlimit="10"/>
<path d="M372.631 88.0316C372.631 92.9713 381.567 107.297 381.567 107.297C381.567 107.297 390.503 92.9751 390.503 88.0316C390.503 85.6598 389.562 83.3851 387.886 81.7079C386.21 80.0308 383.937 79.0886 381.567 79.0886C379.197 79.0886 376.924 80.0308 375.248 81.7079C373.572 83.3851 372.631 85.6598 372.631 88.0316Z" fill="#003A7A"/>
<path d="M357.858 115.389C360.553 119.535 375.819 126.697 375.819 126.697C375.819 126.697 375.542 109.813 372.858 105.667C372.22 104.681 371.394 103.829 370.428 103.162C369.461 102.495 368.373 102.024 367.225 101.778C366.076 101.532 364.891 101.514 363.736 101.726C362.581 101.938 361.479 102.376 360.493 103.014C359.507 103.653 358.657 104.479 357.99 105.446C357.323 106.414 356.853 107.503 356.607 108.652C356.361 109.801 356.343 110.987 356.555 112.143C356.767 113.299 357.204 114.402 357.842 115.389H357.858Z" fill="#003A7A"/>
<path d="M358.493 162.142C362.902 164.365 379.704 162.828 379.704 162.828C379.704 162.828 370.948 148.394 366.54 146.171C365.492 145.642 364.35 145.325 363.18 145.238C362.01 145.151 360.834 145.295 359.719 145.663C358.605 146.03 357.573 146.614 356.684 147.381C355.795 148.147 355.065 149.081 354.537 150.13C354.009 151.179 353.692 152.321 353.605 153.492C353.518 154.664 353.662 155.841 354.029 156.956C354.397 158.071 354.98 159.103 355.746 159.993C356.512 160.883 357.445 161.613 358.493 162.142V162.142Z" fill="#003A7A"/>
<path d="M366.963 197.406C370.933 200.342 387.754 201.671 387.754 201.671C387.754 201.671 381.563 185.962 377.594 183.026C376.65 182.327 375.578 181.822 374.44 181.537C373.301 181.253 372.117 181.197 370.957 181.37C369.796 181.544 368.681 181.945 367.675 182.55C366.669 183.155 365.792 183.952 365.094 184.896C364.396 185.841 363.891 186.913 363.607 188.053C363.323 189.192 363.266 190.377 363.44 191.538C363.613 192.7 364.014 193.816 364.618 194.823C365.223 195.829 366.02 196.707 366.963 197.406V197.406Z" fill="#003A7A"/>
<path d="M394.584 127.653C391.046 131.094 374.563 134.658 374.563 134.658C374.563 134.658 378.602 118.263 382.141 114.822C382.981 113.997 383.976 113.347 385.069 112.908C386.161 112.469 387.329 112.251 388.506 112.265C389.684 112.279 390.846 112.526 391.928 112.992C393.009 113.457 393.988 114.132 394.808 114.977C395.628 115.822 396.273 116.821 396.707 117.916C397.14 119.012 397.353 120.182 397.332 121.36C397.312 122.538 397.06 123.7 396.59 124.78C396.119 125.86 395.441 126.836 394.592 127.653H394.584Z" fill="#003A7A"/>
<path d="M403.925 169.02C399.517 171.243 382.714 169.706 382.714 169.706C382.714 169.706 391.47 155.272 395.878 153.049C396.926 152.52 398.068 152.203 399.238 152.116C400.408 152.028 401.584 152.173 402.699 152.54C403.813 152.908 404.845 153.492 405.734 154.258C406.623 155.025 407.353 155.959 407.881 157.008C408.409 158.056 408.726 159.199 408.813 160.37C408.9 161.541 408.756 162.718 408.389 163.834C408.021 164.949 407.438 165.981 406.672 166.871C405.906 167.761 404.973 168.491 403.925 169.02V169.02Z" fill="#003A7A"/>
<path d="M407.521 210.475C403.551 213.411 386.73 214.741 386.73 214.741C386.73 214.741 392.921 199.032 396.891 196.095C397.833 195.381 398.908 194.862 400.052 194.566C401.197 194.27 402.388 194.205 403.558 194.374C404.728 194.542 405.853 194.941 406.868 195.548C407.883 196.155 408.767 196.957 409.47 197.908C410.173 198.859 410.68 199.94 410.962 201.089C411.245 202.237 411.297 203.431 411.115 204.599C410.933 205.768 410.522 206.889 409.904 207.898C409.287 208.907 408.475 209.783 407.517 210.475H407.521Z" fill="#003A7A"/>
<path opacity="0.1" d="M331.353 221.491C342.836 221.491 352.144 218.179 352.144 214.093C352.144 210.007 342.836 206.695 331.353 206.695C319.871 206.695 310.562 210.007 310.562 214.093C310.562 218.179 319.871 221.491 331.353 221.491Z" fill="black"/>
<path d="M330.51 215.145C330.51 215.145 336.066 196.265 329.467 182.367C326.661 176.555 325.815 169.99 327.056 163.656C327.669 160.654 328.556 157.715 329.705 154.875" stroke="#535461" stroke-width="2" stroke-miterlimit="10"/>
<path d="M325.597 146.09C325.597 148.402 329.782 155.114 329.782 155.114C329.782 155.114 333.967 148.402 333.967 146.09C333.967 144.979 333.526 143.913 332.741 143.127C331.956 142.341 330.891 141.9 329.78 141.9C328.67 141.9 327.605 142.341 326.82 143.127C326.034 143.913 325.593 144.979 325.593 146.09H325.597Z" fill="#003A7A"/>
<path d="M318.678 158.905C319.933 160.832 327.095 164.203 327.095 164.203C327.095 164.203 326.964 156.293 325.709 154.351C325.41 153.889 325.023 153.491 324.57 153.178C324.118 152.866 323.608 152.646 323.07 152.53C322.532 152.415 321.977 152.407 321.436 152.507C320.896 152.606 320.38 152.811 319.918 153.11C319.456 153.409 319.058 153.796 318.746 154.25C318.434 154.703 318.214 155.213 318.099 155.751C317.984 156.289 317.976 156.845 318.075 157.386C318.175 157.927 318.379 158.443 318.678 158.905V158.905Z" fill="#003A7A"/>
<path d="M318.979 180.81C321.042 181.851 328.916 181.134 328.916 181.134C328.916 181.134 324.816 174.372 322.756 173.327C322.265 173.08 321.73 172.931 321.182 172.891C320.633 172.85 320.082 172.917 319.56 173.09C318.506 173.438 317.632 174.19 317.133 175.183C316.633 176.175 316.547 177.325 316.895 178.381C317.243 179.436 317.995 180.31 318.986 180.81H318.979Z" fill="#003A7A"/>
<path d="M322.937 197.332C324.796 198.708 332.678 199.332 332.678 199.332C332.678 199.332 329.775 191.973 327.919 190.597C327.477 190.27 326.974 190.033 326.441 189.9C325.907 189.767 325.353 189.741 324.809 189.823C324.265 189.904 323.743 190.092 323.271 190.376C322.8 190.659 322.389 191.033 322.063 191.476C321.736 191.918 321.499 192.421 321.366 192.955C321.234 193.489 321.207 194.044 321.289 194.588C321.37 195.132 321.558 195.655 321.841 196.126C322.125 196.598 322.498 197.009 322.94 197.336L322.937 197.332Z" fill="#003A7A"/>
<path d="M335.885 164.654C334.225 166.265 326.498 167.937 326.498 167.937C326.498 167.937 328.392 160.254 330.048 158.643C330.844 157.869 331.916 157.444 333.026 157.46C334.136 157.476 335.194 157.933 335.968 158.73C336.741 159.527 337.166 160.599 337.15 161.71C337.134 162.821 336.677 163.88 335.881 164.654H335.885Z" fill="#003A7A"/>
<path d="M340.27 184.035C338.206 185.076 330.333 184.359 330.333 184.359C330.333 184.359 334.433 177.597 336.493 176.553C337.485 176.052 338.634 175.967 339.689 176.315C340.743 176.663 341.616 177.416 342.116 178.408C342.616 179.4 342.702 180.55 342.354 181.606C342.006 182.661 341.254 183.535 340.262 184.035H340.27Z" fill="#003A7A"/>
<path d="M341.937 203.443C340.078 204.819 332.196 205.443 332.196 205.443C332.196 205.443 335.099 198.084 336.955 196.708C337.397 196.381 337.899 196.144 338.432 196.01C338.966 195.877 339.52 195.85 340.064 195.932C340.608 196.013 341.13 196.201 341.602 196.484C342.073 196.767 342.484 197.141 342.811 197.583C343.138 198.025 343.375 198.527 343.508 199.061C343.642 199.595 343.668 200.15 343.587 200.694C343.506 201.238 343.318 201.761 343.035 202.233C342.752 202.705 342.379 203.116 341.937 203.443Z" fill="#003A7A"/>
<path d="M438.276 252.705L319.06 189.418H294.06L300.529 135.536C300.67 134.357 300.575 133.161 300.249 132.019C299.924 130.877 299.373 129.811 298.631 128.884C297.888 127.957 296.968 127.188 295.925 126.621C294.882 126.055 293.736 125.702 292.555 125.584L291.885 125.611H291.82L200.875 126.994C198.547 126.829 196.236 127.5 194.358 128.886C192.48 130.273 191.156 132.283 190.626 134.558L186.391 165.521L185.778 164.585L185.482 164.134C187.719 162.678 183.307 154.02 179.568 147.566L179.229 146.98C181.601 145.99 184.234 145.054 184.234 145.054L178.401 141.409C178.401 141.409 173.034 133.633 167.321 127.325C171.171 103.197 163.039 75.3087 162.943 74.9234L162.727 74.9812C163.856 73.152 164.451 71.0432 164.445 68.8933C164.445 67.2557 164.098 65.6367 163.427 64.1434C162.755 62.6501 161.774 61.3167 160.548 60.2316C160.321 58.1663 159.994 56.0394 159.524 53.8007C159.439 53.4154 159.351 52.9877 159.255 52.5793C158.816 50.6528 158.373 48.7262 157.791 46.8382C157.388 45.4922 156.888 44.1774 156.294 42.9042C153.256 36.4811 147.007 31.8882 140.162 30.2699C136.639 29.4376 133.027 30.7284 129.739 30.1119C128.084 29.8075 126.601 28.2162 124.988 27.5727C122.944 26.7559 120.73 26.3744 118.566 26.0315C115.871 25.5807 113.072 25.1337 110.388 25.7194C105.961 26.6827 102.584 30.2738 100.101 34.0652C97.6172 37.8567 95.6883 42.0565 92.6197 45.3933C90.5676 47.6281 88.0418 49.4236 86.213 51.8434C83.5179 55.4036 82.5823 59.9349 81.716 64.3351C80.6457 69.7487 79.5753 75.2394 79.5984 80.7377C79.5984 82.0131 79.6177 83.2923 79.7293 84.5715C80.0104 87.8544 80.7573 91.091 80.9344 94.3777C80.9344 94.7322 80.9614 95.0866 80.9691 95.4411C80.9306 101.456 79.1557 107.386 77.3923 113.165C76.8302 115.003 76.2603 116.857 75.5942 118.668C72.0521 118.968 68.664 119.677 66.0805 121.072C56.6399 126.127 49.3746 137.401 49.3746 137.401L35.5641 150.117C35.5641 150.117 41.0159 152.663 43.5609 157.029C43.652 157.183 43.7563 157.329 43.8727 157.464L43.6725 157.927L35.5641 176.668C35.5641 176.668 40.654 180.305 48.2696 179.577C49.5074 179.422 50.7636 179.514 51.9658 179.847C51.9658 180.078 51.9427 180.313 51.935 180.56C51.4691 191.283 51.2227 214.779 56.7669 230.65L44.2385 245.292L19.2124 252.709L18.1228 271.974H439.004L438.276 252.705ZM77.3268 180.864C78.4001 181.083 79.447 181.416 80.4493 181.858V195.252C79.7871 190.52 78.8669 185.673 77.5848 181.643C77.5039 181.38 77.4308 181.122 77.3268 180.864ZM149.591 206.638C149.591 206.591 149.591 206.545 149.591 206.499C149.606 206.031 149.669 205.566 149.779 205.112C149.936 204.407 150.283 203.759 150.784 203.239C151.712 202.31 152.671 201.313 153.629 200.23C154.22 201.755 155.072 203.164 156.147 204.395C157.38 205.771 160.132 207.007 163.998 208.125C159.224 207.384 154.415 206.887 149.591 206.638ZM181.012 204.788L168.429 208.514C162.481 207.181 158.25 205.655 156.683 203.89C155.586 202.625 154.735 201.167 154.172 199.59C158.662 194.381 163.028 187.372 164.029 177.801C164.056 177.551 164.075 177.292 164.098 177.03C165.463 176.254 166.752 175.351 167.948 174.333L168.175 174.865C171.558 182.563 176.344 189.564 182.286 195.51L181.012 204.788ZM162.362 75.5438C163.351 79.1156 170.062 104.403 166.697 126.64C164.602 124.382 162.489 122.363 160.594 121.033C160.146 120.723 159.676 120.443 159.189 120.197C158.769 116.121 158.577 111.894 158.546 107.706C158.585 102.519 158.893 97.3754 159.316 92.4819C159.774 87.2957 160.313 82.3483 160.648 77.4819C161.29 76.9016 161.864 76.2515 162.362 75.5438Z" fill="url(#paint0_linear)"/>
<path d="M156.22 81.7703H152.936V59.0371H156.22C158.728 59.0371 161.134 60.0341 162.907 61.8088C164.68 63.5835 165.676 65.9905 165.676 68.5003V72.284C165.68 73.5287 165.437 74.7617 164.963 75.9125C164.489 77.0633 163.793 78.1093 162.915 78.9904C162.037 79.8716 160.993 80.5708 159.844 81.0478C158.696 81.5248 157.464 81.7703 156.22 81.7703Z" fill="#DFE6F5"/>
<path d="M152.47 81.7703H153.402C154.684 81.7703 155.724 80.7301 155.724 79.4469V61.3798C155.724 60.0966 154.684 59.0563 153.402 59.0563H152.47C151.188 59.0563 150.149 60.0966 150.149 61.3798V79.4469C150.149 80.7301 151.188 81.7703 152.47 81.7703Z" fill="#535461"/>
<g opacity="0.1">
<path opacity="0.1" d="M156.221 81.7704H152.937V59.0371H156.221C158.729 59.0371 161.134 60.0342 162.907 61.8089C164.68 63.5835 165.677 65.9905 165.677 68.5003V72.2841C165.68 73.5287 165.437 74.7618 164.964 75.9126C164.49 77.0634 163.794 78.1093 162.915 78.9905C162.037 79.8717 160.993 80.5708 159.845 81.0478C158.696 81.5249 157.464 81.7704 156.221 81.7704Z" fill="black"/>
<path opacity="0.1" d="M152.47 81.7704H153.402C154.684 81.7704 155.724 80.7302 155.724 79.447V61.3798C155.724 60.0966 154.684 59.0564 153.402 59.0564H152.47C151.188 59.0564 150.149 60.0966 150.149 61.3798V79.447C150.149 80.7302 151.188 81.7704 152.47 81.7704Z" fill="black"/>
</g>
<path d="M157.784 71.0703H100.382V130.658H157.784V71.0703Z" fill="#1D1D1D"/>
<path opacity="0.1" d="M157.784 62.8632H100.382V122.451H157.784V62.8632Z" fill="black"/>
<path d="M155.824 120.49L152.359 145.689L150.726 157.534L150.126 161.884L145.094 171.702L135.853 189.719L118.027 191.861L86.671 147.608C86.671 147.608 70.2539 116.209 95.2146 119.061C109.21 120.663 112.54 108.126 112.791 96.8013C112.853 91.0997 112.337 85.4064 111.251 79.8091L136.207 91.9425C135.627 94.6474 135.191 97.1327 134.898 99.3983C133.682 108.669 134.69 114.448 136.8 117.951C142.418 127.279 155.824 120.49 155.824 120.49Z" fill="#FDC2CC"/>
<path opacity="0.1" d="M136.215 91.9463C135.635 94.6512 135.199 97.1364 134.906 99.4021C132.316 100.14 129.636 100.513 126.944 100.512C121.986 100.52 117.11 99.2444 112.791 96.8089C112.853 91.1073 112.337 85.414 111.25 79.8168L136.215 91.9463Z" fill="black"/>
<path d="M126.944 99.7951C142.894 99.7951 155.824 86.8552 155.824 70.8931C155.824 54.9309 142.894 41.991 126.944 41.991C110.994 41.991 98.0637 54.9309 98.0637 70.8931C98.0637 86.8552 110.994 99.7951 126.944 99.7951Z" fill="#FDC2CC"/>
<path d="M165.453 235.385L46.7217 244.671L65.9725 222.192C86.6287 209.562 86.4516 192.2 83.7064 181.431C82.8545 177.979 81.5672 174.65 79.8755 171.524L120.914 171.717H121.261L124.634 179.388L124.788 179.735L127.298 185.442L135.853 170.099L138.829 165.298L140.493 162.601C140.493 162.601 165.095 156.89 165.449 171.52C165.492 173.2 165.426 174.881 165.253 176.553C164.029 188.328 157.591 196.157 152.259 201.494C146.198 207.555 165.453 235.385 165.453 235.385Z" fill="#00822D"/>
<path d="M151.273 204.037C150.403 207.504 152.598 213.465 155.508 219.318C141.551 220.821 126.247 220.039 126.247 220.039L110.542 224.323L66.3345 237.169C64.4094 234.676 62.8694 231.544 61.595 228.014L65.9765 222.898C79.7639 214.467 84.2686 203.929 84.927 194.651C85.189 190.439 84.7783 186.213 83.7103 182.132C82.859 178.683 81.573 175.357 79.8833 172.233L120.922 172.426H121.269L124.641 180.097L124.795 180.444L127.306 186.151L135.861 170.808L138.829 166.007L140.493 163.309C140.493 163.309 165.095 157.591 165.453 172.233C165.496 173.913 165.43 175.594 165.257 177.265C164.033 189.04 157.595 196.87 152.263 202.206C151.771 202.714 151.429 203.347 151.273 204.037Z" fill="#00822D"/>
<path d="M243.893 222.539C243.18 231.101 222.501 219.684 222.501 219.684C222.501 219.684 216.083 217.542 194.333 203.628C183.291 196.566 174.584 186.392 169.307 174.387C168.475 172.532 167.779 170.618 167.224 168.661L182.209 157.591L186.579 164.277L201.106 186.49L222.497 200.746C222.497 200.746 244.605 213.978 243.893 222.539Z" fill="#FDC2CC"/>
<path d="M434.283 250.728H23.1895L64.3439 238.541L167.228 208.071L232.835 188.64H317.338L434.283 250.728Z" fill="#EEEEEE"/>
<path d="M23.1895 250.728L22.1191 269.639H434.996L434.283 250.728H23.1895Z" fill="#EEEEEE"/>
<path opacity="0.1" d="M23.1895 250.728L22.1191 269.639H434.996L434.283 250.728H23.1895Z" fill="black"/>
<path d="M130.967 223.984L217.862 215.049L218.932 232.176L179.214 236.118C176.474 236.34 173.716 236.126 171.044 235.482L130.894 225.102C130.766 225.068 130.654 224.991 130.576 224.883C130.499 224.776 130.461 224.645 130.47 224.513C130.479 224.38 130.533 224.255 130.624 224.159C130.714 224.063 130.836 224.001 130.967 223.984Z" fill="#535461"/>
<path opacity="0.2" d="M130.967 223.984L217.862 215.049L218.932 232.176L179.214 236.118C176.474 236.34 173.716 236.126 171.044 235.482L130.894 225.102C130.766 225.068 130.654 224.991 130.576 224.883C130.499 224.776 130.461 224.645 130.47 224.513C130.479 224.38 130.533 224.255 130.624 224.159C130.714 224.063 130.836 224.001 130.967 223.984Z" fill="black"/>
<path d="M130.967 223.626L218.578 214.69L219.648 231.818L179.926 235.039C177.188 235.265 174.432 235.054 171.76 234.415L130.894 224.747C130.764 224.715 130.649 224.639 130.569 224.531C130.49 224.422 130.451 224.29 130.46 224.156C130.468 224.022 130.524 223.895 130.617 223.798C130.71 223.701 130.834 223.64 130.967 223.626Z" fill="#535461"/>
<path opacity="0.3" d="M151.739 224.25L198.064 219.526L198.63 228.581L177.627 230.288C176.179 230.406 174.721 230.293 173.308 229.953L151.7 224.84C151.633 224.822 151.573 224.782 151.532 224.725C151.491 224.668 151.471 224.599 151.475 224.529C151.48 224.459 151.509 224.393 151.557 224.342C151.605 224.291 151.669 224.258 151.739 224.25Z" fill="#F5F5F5"/>
<path opacity="0.1" d="M186.579 164.284C186.298 164.67 185.809 164.843 185.062 164.735C177.932 163.664 169.731 174.013 169.731 174.013C169.731 174.013 169.584 174.152 169.319 174.399C168.487 172.543 167.791 170.63 167.236 168.673L182.209 157.591L186.579 164.284Z" fill="black"/>
<path opacity="0.1" d="M165.257 177.242C161.903 179.111 157.287 180.452 153.687 176.857C147.469 170.634 136.569 171.463 135.892 171.501C137.004 171.347 137.99 169.058 138.829 165.991L140.493 163.294C140.493 163.294 165.095 157.592 165.453 172.233C165.495 173.905 165.429 175.579 165.257 177.242Z" fill="black"/>
<path opacity="0.1" d="M152.351 145.689L150.118 161.872L145.086 171.69C141.967 170.891 138.742 170.588 135.53 170.792C139.076 170.303 141.367 148.128 141.367 148.128L141.571 148.082L152.351 145.689Z" fill="black"/>
<path d="M185.062 164.022C177.932 162.951 169.731 173.3 169.731 173.3C169.731 173.3 160.105 182.579 153.687 176.156C147.469 169.933 136.569 170.761 135.892 170.8C139.438 170.307 141.728 148.132 141.728 148.132L141.933 148.086L176.149 140.472C176.149 140.472 178.19 143.601 180.492 147.585C184.646 154.763 189.652 164.712 185.062 164.022Z" fill="#00822D"/>
<path opacity="0.1" d="M176.503 149.75C176.861 150.463 170.797 154.031 167.948 152.96C165.099 151.889 157.965 157.584 157.253 158.312C156.54 159.04 140.497 157.241 140.497 157.241C141.162 154.221 141.642 151.164 141.933 148.086L176.149 140.472C176.149 140.472 178.19 143.601 180.492 147.585C178.363 148.46 176.33 149.4 176.503 149.75Z" fill="black"/>
<path opacity="0.1" d="M155.824 120.49L152.359 145.689L150.726 157.534C145.945 157.175 140.146 156.532 140.146 156.532C140.146 156.532 146.206 131.198 136.223 118.001C136.223 118.001 136.435 118.001 136.816 117.962C142.418 127.279 155.824 120.49 155.824 120.49Z" fill="black"/>
<path d="M136.573 117.993C136.573 117.993 154.758 116.568 161.888 121.561C169.019 126.555 179.36 141.543 179.36 141.543L185.066 145.111C185.066 145.111 176.153 148.321 176.511 149.038C176.869 149.754 170.805 153.318 167.956 152.247C165.107 151.176 157.972 156.871 157.26 157.599C156.548 158.327 140.504 156.528 140.504 156.528C140.504 156.528 146.557 131.194 136.573 117.993Z" fill="#00822D"/>
<path d="M267.949 216.293C263.821 216.193 166.785 213.673 157.522 203.332C147.658 192.319 157.233 160.589 165.295 137.679C174.07 112.738 163.609 76.9231 163.505 76.5147L164.194 76.3336C164.302 76.7459 174.817 112.768 165.969 137.914C153.429 173.559 150.838 194.801 158.053 202.854C167.116 212.968 266.959 215.569 267.968 215.569L267.949 216.293Z" fill="#DFE6F5"/>
<path d="M200.863 127.387L290.626 126.023C291.783 126.141 292.905 126.489 293.927 127.046C294.948 127.603 295.848 128.358 296.575 129.267C297.301 130.176 297.84 131.22 298.158 132.34C298.477 133.459 298.569 134.631 298.43 135.787L288.247 220.632C288.003 222.67 287.052 224.559 285.56 225.967C284.067 227.375 282.128 228.215 280.081 228.338L188.335 234.021C187.036 234.099 185.736 233.887 184.529 233.398C183.323 232.91 182.24 232.159 181.36 231.199C180.48 230.24 179.825 229.096 179.443 227.851C179.06 226.607 178.959 225.292 179.148 224.003L191.33 134.835C191.657 132.605 192.83 130.586 194.605 129.199C196.381 127.812 198.622 127.163 200.863 127.387Z" fill="#535461"/>
<path opacity="0.2" d="M200.863 127.387L290.626 126.023C291.783 126.141 292.905 126.489 293.927 127.046C294.948 127.603 295.848 128.358 296.575 129.267C297.301 130.176 297.84 131.22 298.158 132.34C298.477 133.459 298.569 134.631 298.43 135.787L288.247 220.632C288.003 222.67 287.052 224.559 285.56 225.967C284.067 227.375 282.128 228.215 280.081 228.338L188.335 234.021C187.036 234.099 185.736 233.887 184.529 233.398C183.323 232.91 182.24 232.159 181.36 231.199C180.48 230.24 179.825 229.096 179.443 227.851C179.06 226.607 178.959 225.292 179.148 224.003L191.33 134.835C191.657 132.605 192.83 130.586 194.605 129.199C196.381 127.812 198.622 127.163 200.863 127.387Z" fill="black"/>
<path d="M201.576 127.387L291.338 126.023C292.497 126.139 293.621 126.486 294.644 127.042C295.667 127.598 296.569 128.352 297.297 129.262C298.025 130.171 298.565 131.216 298.884 132.337C299.204 133.457 299.297 134.63 299.158 135.787L288.974 220.632C288.731 222.67 287.78 224.559 286.287 225.967C284.795 227.375 282.856 228.215 280.808 228.338L189.051 234.021C187.752 234.099 186.452 233.887 185.245 233.398C184.039 232.91 182.956 232.159 182.076 231.199C181.196 230.24 180.541 229.096 180.159 227.851C179.776 226.607 179.676 225.292 179.864 224.003L192.046 134.835C192.373 132.606 193.545 130.588 195.32 129.201C197.095 127.814 199.335 127.164 201.576 127.387Z" fill="#535461"/>
<path opacity="0.3" d="M245.494 179.897C247.857 179.897 249.772 177.98 249.772 175.616C249.772 173.252 247.857 171.335 245.494 171.335C243.132 171.335 241.217 173.252 241.217 175.616C241.217 177.98 243.132 179.897 245.494 179.897Z" fill="#F5F5F5"/>
<path opacity="0.1" d="M155.508 219.322C141.551 220.825 126.247 220.042 126.247 220.042L110.542 224.323L66.3345 237.169C64.4094 234.676 62.8694 231.544 61.595 228.014L65.9765 222.898C79.7639 214.467 84.2686 203.929 84.927 194.651C86.1051 203.879 86.3015 212.19 86.3015 212.19L104.128 210.406L130.028 204.241C131.811 203.816 133.639 203.603 135.472 203.605C138.845 203.605 144.847 203.678 151.258 204.025C150.403 207.497 152.598 213.461 155.508 219.322Z" fill="black"/>
<path opacity="0.1" d="M175.079 214.69C166.878 224.323 124.807 222.185 124.807 222.185L109.118 226.466L64.9061 239.308C64.7136 239.057 64.5211 238.803 64.344 238.537L167.232 208.067C173.8 209.392 177.832 211.458 175.079 214.69Z" fill="black"/>
<path d="M175.079 213.978C166.878 223.61 124.807 221.472 124.807 221.472L109.118 225.749L64.9062 238.595C54.5108 225.109 54.7418 192.971 55.3078 179.97C55.4618 176.479 55.635 174.368 55.635 174.368C55.635 174.368 70.6083 165.09 77.3846 174.368C78.5936 176.021 79.6062 178.333 80.4648 181.014C84.3958 193.379 84.8771 213.615 84.8771 213.615L102.703 211.831L128.603 205.667C130.388 205.242 132.217 205.028 134.051 205.031C144.786 205.062 182.117 205.709 175.079 213.978Z" fill="#FDC2CC"/>
<path opacity="0.1" d="M80.4608 181.018C78.1854 180.525 75.4248 180.633 71.6824 182.22C64.1939 185.43 58.4918 184.717 58.4918 184.717C58.4918 184.717 58.9499 181.076 55.3115 179.97C55.4655 176.479 55.6388 174.368 55.6388 174.368C55.6388 174.368 70.6121 165.09 77.3884 174.368C78.5858 176.021 79.6061 178.333 80.4608 181.018Z" fill="black"/>
<path opacity="0.1" d="M124.788 180.437C124.549 180.487 121.342 181.092 115.162 179.72C108.744 178.294 106.249 181.146 102.684 182.575C99.1187 184.005 89.8668 184.717 86.2861 183.292C85.4429 182.953 84.5959 182.521 83.6988 182.136C82.8515 178.686 81.5694 175.359 79.8833 172.233L120.922 172.426L124.641 180.097L124.788 180.437Z" fill="black"/>
<path d="M124.788 179.724C124.788 179.724 121.581 180.437 115.162 179.011C108.744 177.585 106.249 180.437 102.684 181.866C99.1188 183.296 89.8476 184.008 86.2824 182.579C82.7171 181.149 79.1519 178.298 71.6517 181.508C64.1516 184.717 58.461 184.004 58.461 184.004C58.461 184.004 59.1733 178.294 51.6886 178.995C44.2039 179.697 39.2102 176.14 39.2102 176.14L47.1647 157.753L49.5518 152.232L109.206 148.151H109.491L124.788 179.724Z" fill="#00822D"/>
<path opacity="0.1" d="M115.162 162.601C111.239 156.177 90.5597 161.888 90.5597 161.888C90.5597 161.888 80.5762 164.743 78.4355 159.391C76.2948 154.039 60.9866 157.592 60.9866 157.592C60.9866 157.592 49.8788 161.761 47.1914 157.761L49.5785 152.24L109.206 148.151L115.162 162.601Z" fill="black"/>
<path d="M98.0638 120.49C98.0638 120.49 78.4549 116.564 69.1875 121.561C59.9202 126.559 52.7897 137.617 52.7897 137.617L39.2371 150.105C39.2371 150.105 44.5849 152.602 47.0799 156.882C49.5748 161.163 60.9867 156.882 60.9867 156.882C60.9867 156.882 76.318 153.315 78.4587 158.666C80.5994 164.018 90.5829 161.163 90.5829 161.163C90.5829 161.163 111.262 155.453 115.185 161.876L98.0638 120.49Z" fill="#00822D"/>
<path opacity="0.1" d="M120.668 29.0639C118.012 28.6169 115.278 28.1815 112.644 28.7556C108.301 29.6996 104.99 33.2252 102.553 36.9396C100.116 40.654 98.2217 44.7768 95.2147 48.0481C93.2011 50.2405 90.7254 52.0013 88.9312 54.3748C86.29 57.8696 85.3698 62.3276 84.5189 66.6277C83.2715 72.939 82.0202 79.3429 82.5707 85.766C82.848 88.9872 83.5795 92.1583 83.7527 95.3987C84.1031 101.907 82.1819 108.295 80.2876 114.529C78.9747 118.837 77.6194 123.226 75.0244 126.905C73.3034 129.344 71.0972 131.387 68.9951 133.502C68.4876 133.933 68.1058 134.494 67.8901 135.124C67.4357 136.966 69.6573 138.207 71.3552 139.039C76.5491 141.632 79.9565 146.691 83.9953 150.86C88.0341 155.029 93.8132 158.609 99.369 156.936C101.017 156.439 102.58 155.495 104.297 155.526C105.452 155.545 106.561 156.016 107.658 156.401C110.388 157.36 113.263 157.842 116.156 157.827C116.795 157.881 117.436 157.747 118 157.441C118.859 156.859 119.024 155.688 119.109 154.655C119.652 148.175 120.191 141.67 119.825 135.178C118.997 120.475 105.421 103.467 110.585 89.6692C112.829 83.6506 116.933 78.4721 119.205 72.4651C121.6 66.1345 130.043 60.9944 131.718 54.4326C131.907 53.6928 132.165 52.8914 132.812 52.5061C133.701 51.959 134.86 52.4367 135.718 53.0301C140.577 56.3823 142.16 62.686 143.927 68.3192C145.351 72.8564 147.116 77.2795 149.206 81.5507C150.361 83.8626 152.84 86.5405 155.012 85.1379C153.918 94.8785 147.604 103.386 146.176 113.081C144.782 122.528 148.158 132.184 146.849 141.64C145.987 147.727 143.233 153.389 138.976 157.823C143.78 158.778 148.72 158.822 153.541 157.954C158.427 157.071 163.655 154.756 165.419 150.109C167.344 144.996 164.368 139.509 162.854 134.253C159.224 121.619 159.505 106.677 160.656 93.58C161.842 80.1135 163.621 68.323 160.606 55.1455C159.867 51.9127 159.116 48.653 157.699 45.6553C154.719 39.3555 148.59 34.8474 141.871 33.2599C138.406 32.443 134.871 33.7107 131.645 33.1096C130.02 32.8052 128.565 31.2486 126.986 30.6167C124.961 29.7883 122.79 29.4184 120.668 29.0639Z" fill="black"/>
<path d="M165.399 149.369C163.636 154.016 158.407 156.332 153.518 157.214C148.697 158.081 143.757 158.036 138.952 157.083C143.208 152.649 145.963 146.987 146.826 140.9C148.139 131.441 144.762 121.785 146.152 112.341C147.581 102.643 153.895 94.1349 154.988 84.3943C152.817 85.7968 150.318 83.1305 149.179 80.8071C147.089 76.5355 145.325 72.1125 143.9 67.5756C142.133 61.9423 140.55 55.631 135.691 52.2865C134.833 51.6931 133.674 51.2153 132.785 51.7663C132.134 52.1516 131.88 52.9646 131.691 53.6929C130.02 60.2431 121.573 65.3909 119.182 71.7215C116.906 77.7285 112.802 82.8955 110.558 88.9255C105.414 102.72 118.989 119.727 119.798 134.431C120.16 140.923 119.621 147.431 119.082 153.908C118.993 154.944 118.828 156.116 117.969 156.698C117.406 157.003 116.767 157.137 116.129 157.083C113.244 157.1 110.377 156.621 107.654 155.665C106.557 155.28 105.456 154.81 104.293 154.79C102.576 154.763 101.013 155.707 99.3651 156.201C93.8093 157.873 88.0263 154.293 83.9913 150.124C79.9564 145.955 76.5374 140.904 71.3474 138.326C69.6495 137.478 67.4279 136.253 67.8822 134.407C68.0998 133.779 68.4813 133.22 68.9872 132.789C71.0894 130.674 73.2994 128.628 75.0205 126.193C77.6155 122.513 78.9669 118.124 80.2836 113.817C82.1856 107.582 84.1068 101.194 83.7488 94.6859C83.5794 91.4609 82.8478 88.2898 82.5668 85.0532C82.0124 78.6416 83.2675 72.2301 84.515 65.9187C85.362 61.6187 86.2822 57.1606 88.9273 53.6659C90.7253 51.2924 93.1971 49.5315 95.2146 47.3391C98.2254 44.0678 100.112 39.945 102.553 36.2268C104.994 32.5086 108.305 28.9868 112.648 28.0428C115.278 27.4687 118.015 27.908 120.672 28.3511C122.793 28.7094 124.965 29.0793 126.971 29.8923C128.553 30.5242 130.009 32.0847 131.629 32.3814C134.856 32.9863 138.402 31.7187 141.856 32.5355C148.574 34.1192 154.704 38.6273 157.684 44.9271C158.267 46.174 158.758 47.4618 159.154 48.7802C159.724 50.6297 160.159 52.5215 160.59 54.4095C160.683 54.7948 160.771 55.211 160.856 55.6079C163.493 68.1535 161.792 77.2892 160.64 90.3396C159.489 103.39 159.208 120.875 162.835 133.494C164.348 138.765 167.34 144.256 165.399 149.369Z" fill="#1D1D1D"/>
<path opacity="0.05" d="M124.272 172.052C124.272 172.052 127.125 176.676 127.125 179.901C127.125 179.901 129.266 172.052 131.048 172.052" fill="black"/>
<path d="M117.496 173.119V196.67C117.501 200.516 116.207 204.252 113.823 207.269C113.415 207.784 112.979 208.275 112.517 208.741C110.927 210.34 109.037 211.608 106.956 212.473C104.875 213.339 102.643 213.784 100.389 213.784C98.1355 213.784 95.9039 213.339 93.8226 212.473C91.7414 211.608 89.8514 210.34 88.2613 208.741C87.7991 208.275 87.3633 207.784 86.9561 207.269C84.5719 204.252 83.2774 200.516 83.283 196.67V173.119C83.2749 169.118 84.6748 165.241 87.2371 162.169C87.692 161.624 88.182 161.109 88.704 160.628C91.8732 157.654 96.0546 155.999 100.399 155.999C104.743 155.999 108.925 157.654 112.094 160.628C112.232 160.751 112.367 160.886 112.502 161.013C112.887 161.398 113.222 161.784 113.561 162.169C116.116 165.244 117.509 169.12 117.496 173.119Z" fill="#DFE6F5"/>
<path opacity="0.1" d="M117.496 173.119V196.67C117.501 200.516 116.207 204.252 113.823 207.269C113.415 207.784 112.979 208.275 112.517 208.741C110.927 210.34 109.037 211.608 106.956 212.473C104.875 213.339 102.643 213.784 100.389 213.784C98.1355 213.784 95.9039 213.339 93.8226 212.473C91.7414 211.608 89.8514 210.34 88.2613 208.741C87.7991 208.275 87.3633 207.784 86.9561 207.269C84.5719 204.252 83.2774 200.516 83.283 196.67V173.119C83.2749 169.118 84.6748 165.241 87.2371 162.169C87.692 161.624 88.182 161.109 88.704 160.628C91.8732 157.654 96.0546 155.999 100.399 155.999C104.743 155.999 108.925 157.654 112.094 160.628C112.232 160.751 112.367 160.886 112.502 161.013C112.887 161.398 113.222 161.784 113.561 162.169C116.116 165.244 117.509 169.12 117.496 173.119Z" fill="black"/>
<path d="M118.212 173.119V196.67C118.217 200.516 116.923 204.252 114.539 207.269C114.131 207.784 113.696 208.275 113.234 208.741C111.643 210.34 109.753 211.608 107.672 212.473C105.591 213.339 103.359 213.784 101.105 213.784C98.8517 213.784 96.6201 213.339 94.5389 212.473C92.4576 211.608 90.5676 210.34 88.9775 208.741C88.5153 208.275 88.0796 207.784 87.6723 207.269C85.2798 204.255 83.9771 200.519 83.9761 196.67V173.119C83.968 169.118 85.3679 165.241 87.9302 162.169C88.3851 161.624 88.8751 161.109 89.3971 160.628C92.5663 157.654 96.7477 155.999 101.092 155.999C105.436 155.999 109.618 157.654 112.787 160.628C112.925 160.751 113.06 160.886 113.195 161.013C113.58 161.398 113.915 161.784 114.254 162.169C116.818 165.241 118.219 169.117 118.212 173.119Z" fill="#DFE6F5"/>
<path opacity="0.1" d="M93.6053 162.416C94.1964 162.416 94.6756 161.936 94.6756 161.344C94.6756 160.753 94.1964 160.273 93.6053 160.273C93.0141 160.273 92.5349 160.753 92.5349 161.344C92.5349 161.936 93.0141 162.416 93.6053 162.416Z" fill="black"/>
<path opacity="0.1" d="M93.6053 165.983C94.1964 165.983 94.6756 165.504 94.6756 164.912C94.6756 164.321 94.1964 163.841 93.6053 163.841C93.0141 163.841 92.5349 164.321 92.5349 164.912C92.5349 165.504 93.0141 165.983 93.6053 165.983Z" fill="black"/>
<path opacity="0.1" d="M93.6053 169.552C94.1964 169.552 94.6756 169.072 94.6756 168.48C94.6756 167.889 94.1964 167.409 93.6053 167.409C93.0141 167.409 92.5349 167.889 92.5349 168.48C92.5349 169.072 93.0141 169.552 93.6053 169.552Z" fill="black"/>
<path opacity="0.1" d="M93.6053 173.119C94.1964 173.119 94.6756 172.64 94.6756 172.048C94.6756 171.457 94.1964 170.977 93.6053 170.977C93.0141 170.977 92.5349 171.457 92.5349 172.048C92.5349 172.64 93.0141 173.119 93.6053 173.119Z" fill="black"/>
<path opacity="0.1" d="M93.6053 176.687C94.1964 176.687 94.6756 176.208 94.6756 175.616C94.6756 175.025 94.1964 174.545 93.6053 174.545C93.0141 174.545 92.5349 175.025 92.5349 175.616C92.5349 176.208 93.0141 176.687 93.6053 176.687Z" fill="black"/>
<path opacity="0.1" d="M93.6053 180.255C94.1964 180.255 94.6756 179.776 94.6756 179.184C94.6756 178.593 94.1964 178.113 93.6053 178.113C93.0141 178.113 92.5349 178.593 92.5349 179.184C92.5349 179.776 93.0141 180.255 93.6053 180.255Z" fill="black"/>
<path opacity="0.1" d="M93.6053 183.823C94.1964 183.823 94.6756 183.344 94.6756 182.752C94.6756 182.161 94.1964 181.681 93.6053 181.681C93.0141 181.681 92.5349 182.161 92.5349 182.752C92.5349 183.344 93.0141 183.823 93.6053 183.823Z" fill="black"/>
<path opacity="0.1" d="M93.6053 187.395C94.1964 187.395 94.6756 186.916 94.6756 186.324C94.6756 185.732 94.1964 185.253 93.6053 185.253C93.0141 185.253 92.5349 185.732 92.5349 186.324C92.5349 186.916 93.0141 187.395 93.6053 187.395Z" fill="black"/>
<path opacity="0.1" d="M93.6053 190.963C94.1964 190.963 94.6756 190.484 94.6756 189.892C94.6756 189.3 94.1964 188.821 93.6053 188.821C93.0141 188.821 92.5349 189.3 92.5349 189.892C92.5349 190.484 93.0141 190.963 93.6053 190.963Z" fill="black"/>
<path opacity="0.1" d="M93.6053 194.531C94.1964 194.531 94.6756 194.052 94.6756 193.46C94.6756 192.868 94.1964 192.389 93.6053 192.389C93.0141 192.389 92.5349 192.868 92.5349 193.46C92.5349 194.052 93.0141 194.531 93.6053 194.531Z" fill="black"/>
<path opacity="0.1" d="M93.6053 198.099C94.1964 198.099 94.6756 197.619 94.6756 197.028C94.6756 196.436 94.1964 195.957 93.6053 195.957C93.0141 195.957 92.5349 196.436 92.5349 197.028C92.5349 197.619 93.0141 198.099 93.6053 198.099Z" fill="black"/>
<path opacity="0.1" d="M93.6053 201.667C94.1964 201.667 94.6756 201.187 94.6756 200.596C94.6756 200.004 94.1964 199.525 93.6053 199.525C93.0141 199.525 92.5349 200.004 92.5349 200.596C92.5349 201.187 93.0141 201.667 93.6053 201.667Z" fill="black"/>
<path opacity="0.1" d="M93.6053 205.235C94.1964 205.235 94.6756 204.755 94.6756 204.164C94.6756 203.572 94.1964 203.093 93.6053 203.093C93.0141 203.093 92.5349 203.572 92.5349 204.164C92.5349 204.755 93.0141 205.235 93.6053 205.235Z" fill="black"/>
<path opacity="0.1" d="M93.6053 208.803C94.1964 208.803 94.6756 208.323 94.6756 207.732C94.6756 207.14 94.1964 206.661 93.6053 206.661C93.0141 206.661 92.5349 207.14 92.5349 207.732C92.5349 208.323 93.0141 208.803 93.6053 208.803Z" fill="black"/>
<path opacity="0.1" d="M89.6859 161.344C89.6856 161.547 89.6277 161.746 89.5188 161.918C89.41 162.089 89.2547 162.226 89.0711 162.312C88.8875 162.399 88.6831 162.431 88.4818 162.406C88.2805 162.38 88.0905 162.298 87.9341 162.169C88.3889 161.624 88.8789 161.109 89.401 160.628C89.5835 160.822 89.6854 161.078 89.6859 161.344Z" fill="black"/>
<path opacity="0.1" d="M88.6155 165.983C89.2067 165.983 89.6859 165.504 89.6859 164.912C89.6859 164.321 89.2067 163.841 88.6155 163.841C88.0244 163.841 87.5452 164.321 87.5452 164.912C87.5452 165.504 88.0244 165.983 88.6155 165.983Z" fill="black"/>
<path opacity="0.1" d="M88.6155 169.552C89.2067 169.552 89.6859 169.072 89.6859 168.48C89.6859 167.889 89.2067 167.409 88.6155 167.409C88.0244 167.409 87.5452 167.889 87.5452 168.48C87.5452 169.072 88.0244 169.552 88.6155 169.552Z" fill="black"/>
<path opacity="0.1" d="M88.6155 173.119C89.2067 173.119 89.6859 172.64 89.6859 172.048C89.6859 171.457 89.2067 170.977 88.6155 170.977C88.0244 170.977 87.5452 171.457 87.5452 172.048C87.5452 172.64 88.0244 173.119 88.6155 173.119Z" fill="black"/>
<path opacity="0.1" d="M88.6155 176.687C89.2067 176.687 89.6859 176.208 89.6859 175.616C89.6859 175.025 89.2067 174.545 88.6155 174.545C88.0244 174.545 87.5452 175.025 87.5452 175.616C87.5452 176.208 88.0244 176.687 88.6155 176.687Z" fill="black"/>
<path opacity="0.1" d="M88.6155 180.255C89.2067 180.255 89.6859 179.776 89.6859 179.184C89.6859 178.593 89.2067 178.113 88.6155 178.113C88.0244 178.113 87.5452 178.593 87.5452 179.184C87.5452 179.776 88.0244 180.255 88.6155 180.255Z" fill="black"/>
<path opacity="0.1" d="M88.6155 183.823C89.2067 183.823 89.6859 183.344 89.6859 182.752C89.6859 182.161 89.2067 181.681 88.6155 181.681C88.0244 181.681 87.5452 182.161 87.5452 182.752C87.5452 183.344 88.0244 183.823 88.6155 183.823Z" fill="black"/>
<path opacity="0.1" d="M88.6155 187.395C89.2067 187.395 89.6859 186.916 89.6859 186.324C89.6859 185.732 89.2067 185.253 88.6155 185.253C88.0244 185.253 87.5452 185.732 87.5452 186.324C87.5452 186.916 88.0244 187.395 88.6155 187.395Z" fill="black"/>
<path opacity="0.1" d="M88.6155 190.963C89.2067 190.963 89.6859 190.484 89.6859 189.892C89.6859 189.3 89.2067 188.821 88.6155 188.821C88.0244 188.821 87.5452 189.3 87.5452 189.892C87.5452 190.484 88.0244 190.963 88.6155 190.963Z" fill="black"/>
<path opacity="0.1" d="M88.6155 194.531C89.2067 194.531 89.6859 194.052 89.6859 193.46C89.6859 192.868 89.2067 192.389 88.6155 192.389C88.0244 192.389 87.5452 192.868 87.5452 193.46C87.5452 194.052 88.0244 194.531 88.6155 194.531Z" fill="black"/>
<path opacity="0.1" d="M88.6155 198.099C89.2067 198.099 89.6859 197.619 89.6859 197.028C89.6859 196.436 89.2067 195.957 88.6155 195.957C88.0244 195.957 87.5452 196.436 87.5452 197.028C87.5452 197.619 88.0244 198.099 88.6155 198.099Z" fill="black"/>
<path opacity="0.1" d="M88.6155 201.667C89.2067 201.667 89.6859 201.187 89.6859 200.596C89.6859 200.004 89.2067 199.525 88.6155 199.525C88.0244 199.525 87.5452 200.004 87.5452 200.596C87.5452 201.187 88.0244 201.667 88.6155 201.667Z" fill="black"/>
<path opacity="0.1" d="M88.6155 205.235C89.2067 205.235 89.6859 204.755 89.6859 204.164C89.6859 203.572 89.2067 203.093 88.6155 203.093C88.0244 203.093 87.5452 203.572 87.5452 204.164C87.5452 204.755 88.0244 205.235 88.6155 205.235Z" fill="black"/>
<path opacity="0.1" d="M89.6857 207.732C89.686 207.956 89.6159 208.174 89.4853 208.356C89.3547 208.538 89.1702 208.674 88.958 208.745C88.4959 208.279 88.0601 207.788 87.6528 207.273C87.7557 207.053 87.931 206.874 88.1494 206.767C88.3678 206.659 88.6164 206.63 88.8537 206.683C89.0911 206.737 89.303 206.87 89.4544 207.061C89.6057 207.252 89.6873 207.488 89.6857 207.732Z" fill="black"/>
<path opacity="0.1" d="M98.5989 162.416C99.19 162.416 99.6692 161.936 99.6692 161.344C99.6692 160.753 99.19 160.273 98.5989 160.273C98.0078 160.273 97.5286 160.753 97.5286 161.344C97.5286 161.936 98.0078 162.416 98.5989 162.416Z" fill="black"/>
<path opacity="0.1" d="M98.5989 165.983C99.19 165.983 99.6692 165.504 99.6692 164.912C99.6692 164.321 99.19 163.841 98.5989 163.841C98.0078 163.841 97.5286 164.321 97.5286 164.912C97.5286 165.504 98.0078 165.983 98.5989 165.983Z" fill="black"/>
<path opacity="0.1" d="M98.5989 169.552C99.19 169.552 99.6692 169.072 99.6692 168.48C99.6692 167.889 99.19 167.409 98.5989 167.409C98.0078 167.409 97.5286 167.889 97.5286 168.48C97.5286 169.072 98.0078 169.552 98.5989 169.552Z" fill="black"/>
<path opacity="0.1" d="M98.5989 173.119C99.19 173.119 99.6692 172.64 99.6692 172.048C99.6692 171.457 99.19 170.977 98.5989 170.977C98.0078 170.977 97.5286 171.457 97.5286 172.048C97.5286 172.64 98.0078 173.119 98.5989 173.119Z" fill="black"/>
<path opacity="0.1" d="M98.5989 176.687C99.19 176.687 99.6692 176.208 99.6692 175.616C99.6692 175.025 99.19 174.545 98.5989 174.545C98.0078 174.545 97.5286 175.025 97.5286 175.616C97.5286 176.208 98.0078 176.687 98.5989 176.687Z" fill="black"/>
<path opacity="0.1" d="M98.5989 180.255C99.19 180.255 99.6692 179.776 99.6692 179.184C99.6692 178.593 99.19 178.113 98.5989 178.113C98.0078 178.113 97.5286 178.593 97.5286 179.184C97.5286 179.776 98.0078 180.255 98.5989 180.255Z" fill="black"/>
<path opacity="0.1" d="M98.5989 183.823C99.19 183.823 99.6692 183.344 99.6692 182.752C99.6692 182.161 99.19 181.681 98.5989 181.681C98.0078 181.681 97.5286 182.161 97.5286 182.752C97.5286 183.344 98.0078 183.823 98.5989 183.823Z" fill="black"/>
<path opacity="0.1" d="M98.5989 187.395C99.19 187.395 99.6692 186.916 99.6692 186.324C99.6692 185.732 99.19 185.253 98.5989 185.253C98.0078 185.253 97.5286 185.732 97.5286 186.324C97.5286 186.916 98.0078 187.395 98.5989 187.395Z" fill="black"/>
<path opacity="0.1" d="M98.5989 190.963C99.19 190.963 99.6692 190.484 99.6692 189.892C99.6692 189.3 99.19 188.821 98.5989 188.821C98.0078 188.821 97.5286 189.3 97.5286 189.892C97.5286 190.484 98.0078 190.963 98.5989 190.963Z" fill="black"/>
<path opacity="0.1" d="M98.5989 194.531C99.19 194.531 99.6692 194.052 99.6692 193.46C99.6692 192.868 99.19 192.389 98.5989 192.389C98.0078 192.389 97.5286 192.868 97.5286 193.46C97.5286 194.052 98.0078 194.531 98.5989 194.531Z" fill="black"/>
<path opacity="0.1" d="M98.5989 198.099C99.19 198.099 99.6692 197.619 99.6692 197.028C99.6692 196.436 99.19 195.957 98.5989 195.957C98.0078 195.957 97.5286 196.436 97.5286 197.028C97.5286 197.619 98.0078 198.099 98.5989 198.099Z" fill="black"/>
<path opacity="0.1" d="M98.5989 201.667C99.19 201.667 99.6692 201.187 99.6692 200.596C99.6692 200.004 99.19 199.525 98.5989 199.525C98.0078 199.525 97.5286 200.004 97.5286 200.596C97.5286 201.187 98.0078 201.667 98.5989 201.667Z" fill="black"/>
<path opacity="0.1" d="M98.5989 205.235C99.19 205.235 99.6692 204.755 99.6692 204.164C99.6692 203.572 99.19 203.093 98.5989 203.093C98.0078 203.093 97.5286 203.572 97.5286 204.164C97.5286 204.755 98.0078 205.235 98.5989 205.235Z" fill="black"/>
<path opacity="0.1" d="M98.5989 208.803C99.19 208.803 99.6692 208.323 99.6692 207.732C99.6692 207.14 99.19 206.661 98.5989 206.661C98.0078 206.661 97.5286 207.14 97.5286 207.732C97.5286 208.323 98.0078 208.803 98.5989 208.803Z" fill="black"/>
<path opacity="0.1" d="M103.589 162.416C104.18 162.416 104.659 161.936 104.659 161.344C104.659 160.753 104.18 160.273 103.589 160.273C102.998 160.273 102.519 160.753 102.519 161.344C102.519 161.936 102.998 162.416 103.589 162.416Z" fill="black"/>
<path opacity="0.1" d="M103.589 165.983C104.18 165.983 104.659 165.504 104.659 164.912C104.659 164.321 104.18 163.841 103.589 163.841C102.998 163.841 102.519 164.321 102.519 164.912C102.519 165.504 102.998 165.983 103.589 165.983Z" fill="black"/>
<path opacity="0.1" d="M103.589 169.552C104.18 169.552 104.659 169.072 104.659 168.48C104.659 167.889 104.18 167.409 103.589 167.409C102.998 167.409 102.519 167.889 102.519 168.48C102.519 169.072 102.998 169.552 103.589 169.552Z" fill="black"/>
<path opacity="0.1" d="M103.589 173.119C104.18 173.119 104.659 172.64 104.659 172.048C104.659 171.457 104.18 170.977 103.589 170.977C102.998 170.977 102.519 171.457 102.519 172.048C102.519 172.64 102.998 173.119 103.589 173.119Z" fill="black"/>
<path opacity="0.1" d="M103.589 176.687C104.18 176.687 104.659 176.208 104.659 175.616C104.659 175.025 104.18 174.545 103.589 174.545C102.998 174.545 102.519 175.025 102.519 175.616C102.519 176.208 102.998 176.687 103.589 176.687Z" fill="black"/>
<path opacity="0.1" d="M103.589 180.255C104.18 180.255 104.659 179.776 104.659 179.184C104.659 178.593 104.18 178.113 103.589 178.113C102.998 178.113 102.519 178.593 102.519 179.184C102.519 179.776 102.998 180.255 103.589 180.255Z" fill="black"/>
<path opacity="0.1" d="M103.589 183.823C104.18 183.823 104.659 183.344 104.659 182.752C104.659 182.161 104.18 181.681 103.589 181.681C102.998 181.681 102.519 182.161 102.519 182.752C102.519 183.344 102.998 183.823 103.589 183.823Z" fill="black"/>
<path opacity="0.1" d="M103.589 187.395C104.18 187.395 104.659 186.916 104.659 186.324C104.659 185.732 104.18 185.253 103.589 185.253C102.998 185.253 102.519 185.732 102.519 186.324C102.519 186.916 102.998 187.395 103.589 187.395Z" fill="black"/>
<path opacity="0.1" d="M103.589 190.963C104.18 190.963 104.659 190.484 104.659 189.892C104.659 189.3 104.18 188.821 103.589 188.821C102.998 188.821 102.519 189.3 102.519 189.892C102.519 190.484 102.998 190.963 103.589 190.963Z" fill="black"/>
<path opacity="0.1" d="M103.589 194.531C104.18 194.531 104.659 194.052 104.659 193.46C104.659 192.868 104.18 192.389 103.589 192.389C102.998 192.389 102.519 192.868 102.519 193.46C102.519 194.052 102.998 194.531 103.589 194.531Z" fill="black"/>
<path opacity="0.1" d="M103.589 198.099C104.18 198.099 104.659 197.619 104.659 197.028C104.659 196.436 104.18 195.957 103.589 195.957C102.998 195.957 102.519 196.436 102.519 197.028C102.519 197.619 102.998 198.099 103.589 198.099Z" fill="black"/>
<path opacity="0.1" d="M103.589 201.667C104.18 201.667 104.659 201.187 104.659 200.596C104.659 200.004 104.18 199.525 103.589 199.525C102.998 199.525 102.519 200.004 102.519 200.596C102.519 201.187 102.998 201.667 103.589 201.667Z" fill="black"/>
<path opacity="0.1" d="M103.589 205.235C104.18 205.235 104.659 204.755 104.659 204.164C104.659 203.572 104.18 203.093 103.589 203.093C102.998 203.093 102.519 203.572 102.519 204.164C102.519 204.755 102.998 205.235 103.589 205.235Z" fill="black"/>
<path opacity="0.1" d="M103.589 208.803C104.18 208.803 104.659 208.323 104.659 207.732C104.659 207.14 104.18 206.661 103.589 206.661C102.998 206.661 102.519 207.14 102.519 207.732C102.519 208.323 102.998 208.803 103.589 208.803Z" fill="black"/>
<path opacity="0.1" d="M108.583 162.416C109.174 162.416 109.653 161.936 109.653 161.344C109.653 160.753 109.174 160.273 108.583 160.273C107.991 160.273 107.512 160.753 107.512 161.344C107.512 161.936 107.991 162.416 108.583 162.416Z" fill="black"/>
<path opacity="0.1" d="M108.583 165.983C109.174 165.983 109.653 165.504 109.653 164.912C109.653 164.321 109.174 163.841 108.583 163.841C107.991 163.841 107.512 164.321 107.512 164.912C107.512 165.504 107.991 165.983 108.583 165.983Z" fill="black"/>
<path opacity="0.1" d="M108.583 169.552C109.174 169.552 109.653 169.072 109.653 168.48C109.653 167.889 109.174 167.409 108.583 167.409C107.991 167.409 107.512 167.889 107.512 168.48C107.512 169.072 107.991 169.552 108.583 169.552Z" fill="black"/>
<path opacity="0.1" d="M108.583 173.119C109.174 173.119 109.653 172.64 109.653 172.048C109.653 171.457 109.174 170.977 108.583 170.977C107.991 170.977 107.512 171.457 107.512 172.048C107.512 172.64 107.991 173.119 108.583 173.119Z" fill="black"/>
<path opacity="0.1" d="M108.583 176.687C109.174 176.687 109.653 176.208 109.653 175.616C109.653 175.025 109.174 174.545 108.583 174.545C107.991 174.545 107.512 175.025 107.512 175.616C107.512 176.208 107.991 176.687 108.583 176.687Z" fill="black"/>
<path opacity="0.1" d="M108.583 180.255C109.174 180.255 109.653 179.776 109.653 179.184C109.653 178.593 109.174 178.113 108.583 178.113C107.991 178.113 107.512 178.593 107.512 179.184C107.512 179.776 107.991 180.255 108.583 180.255Z" fill="black"/>
<path opacity="0.1" d="M108.583 183.823C109.174 183.823 109.653 183.344 109.653 182.752C109.653 182.161 109.174 181.681 108.583 181.681C107.991 181.681 107.512 182.161 107.512 182.752C107.512 183.344 107.991 183.823 108.583 183.823Z" fill="black"/>
<path opacity="0.1" d="M108.583 187.395C109.174 187.395 109.653 186.916 109.653 186.324C109.653 185.732 109.174 185.253 108.583 185.253C107.991 185.253 107.512 185.732 107.512 186.324C107.512 186.916 107.991 187.395 108.583 187.395Z" fill="black"/>
<path opacity="0.1" d="M108.583 190.963C109.174 190.963 109.653 190.484 109.653 189.892C109.653 189.3 109.174 188.821 108.583 188.821C107.991 188.821 107.512 189.3 107.512 189.892C107.512 190.484 107.991 190.963 108.583 190.963Z" fill="black"/>
<path opacity="0.1" d="M108.583 194.531C109.174 194.531 109.653 194.052 109.653 193.46C109.653 192.868 109.174 192.389 108.583 192.389C107.991 192.389 107.512 192.868 107.512 193.46C107.512 194.052 107.991 194.531 108.583 194.531Z" fill="black"/>
<path opacity="0.1" d="M108.583 198.099C109.174 198.099 109.653 197.619 109.653 197.028C109.653 196.436 109.174 195.957 108.583 195.957C107.991 195.957 107.512 196.436 107.512 197.028C107.512 197.619 107.991 198.099 108.583 198.099Z" fill="black"/>
<path opacity="0.1" d="M108.583 201.667C109.174 201.667 109.653 201.187 109.653 200.596C109.653 200.004 109.174 199.525 108.583 199.525C107.991 199.525 107.512 200.004 107.512 200.596C107.512 201.187 107.991 201.667 108.583 201.667Z" fill="black"/>
<path opacity="0.1" d="M108.583 205.235C109.174 205.235 109.653 204.755 109.653 204.164C109.653 203.572 109.174 203.093 108.583 203.093C107.991 203.093 107.512 203.572 107.512 204.164C107.512 204.755 107.991 205.235 108.583 205.235Z" fill="black"/>
<path opacity="0.1" d="M108.583 208.803C109.174 208.803 109.653 208.323 109.653 207.732C109.653 207.14 109.174 206.661 108.583 206.661C107.991 206.661 107.512 207.14 107.512 207.732C107.512 208.323 107.991 208.803 108.583 208.803Z" fill="black"/>
<path opacity="0.1" d="M114.258 162.169C114.101 162.298 113.911 162.38 113.71 162.406C113.509 162.431 113.304 162.399 113.121 162.312C112.937 162.226 112.782 162.089 112.673 161.918C112.564 161.746 112.506 161.547 112.506 161.344C112.504 161.075 112.606 160.816 112.791 160.62C112.929 160.743 113.064 160.878 113.199 161.005C113.569 161.383 113.919 161.768 114.258 162.169Z" fill="black"/>
<path opacity="0.1" d="M113.572 165.983C114.163 165.983 114.643 165.504 114.643 164.912C114.643 164.321 114.163 163.841 113.572 163.841C112.981 163.841 112.502 164.321 112.502 164.912C112.502 165.504 112.981 165.983 113.572 165.983Z" fill="black"/>
<path opacity="0.1" d="M113.572 169.552C114.163 169.552 114.643 169.072 114.643 168.48C114.643 167.889 114.163 167.409 113.572 167.409C112.981 167.409 112.502 167.889 112.502 168.48C112.502 169.072 112.981 169.552 113.572 169.552Z" fill="black"/>
<path opacity="0.1" d="M113.572 173.119C114.163 173.119 114.643 172.64 114.643 172.048C114.643 171.457 114.163 170.977 113.572 170.977C112.981 170.977 112.502 171.457 112.502 172.048C112.502 172.64 112.981 173.119 113.572 173.119Z" fill="black"/>
<path opacity="0.1" d="M113.572 176.687C114.163 176.687 114.643 176.208 114.643 175.616C114.643 175.025 114.163 174.545 113.572 174.545C112.981 174.545 112.502 175.025 112.502 175.616C112.502 176.208 112.981 176.687 113.572 176.687Z" fill="black"/>
<path opacity="0.1" d="M113.572 180.255C114.163 180.255 114.643 179.776 114.643 179.184C114.643 178.593 114.163 178.113 113.572 178.113C112.981 178.113 112.502 178.593 112.502 179.184C112.502 179.776 112.981 180.255 113.572 180.255Z" fill="black"/>
<path opacity="0.1" d="M113.572 183.823C114.163 183.823 114.643 183.344 114.643 182.752C114.643 182.161 114.163 181.681 113.572 181.681C112.981 181.681 112.502 182.161 112.502 182.752C112.502 183.344 112.981 183.823 113.572 183.823Z" fill="black"/>
<path opacity="0.1" d="M113.572 187.395C114.163 187.395 114.643 186.916 114.643 186.324C114.643 185.732 114.163 185.253 113.572 185.253C112.981 185.253 112.502 185.732 112.502 186.324C112.502 186.916 112.981 187.395 113.572 187.395Z" fill="black"/>
<path opacity="0.1" d="M113.572 190.963C114.163 190.963 114.643 190.484 114.643 189.892C114.643 189.3 114.163 188.821 113.572 188.821C112.981 188.821 112.502 189.3 112.502 189.892C112.502 190.484 112.981 190.963 113.572 190.963Z" fill="black"/>
<path opacity="0.1" d="M113.572 194.531C114.163 194.531 114.643 194.052 114.643 193.46C114.643 192.868 114.163 192.389 113.572 192.389C112.981 192.389 112.502 192.868 112.502 193.46C112.502 194.052 112.981 194.531 113.572 194.531Z" fill="black"/>
<path opacity="0.1" d="M113.572 198.099C114.163 198.099 114.643 197.619 114.643 197.028C114.643 196.436 114.163 195.957 113.572 195.957C112.981 195.957 112.502 196.436 112.502 197.028C112.502 197.619 112.981 198.099 113.572 198.099Z" fill="black"/>
<path opacity="0.1" d="M113.572 201.667C114.163 201.667 114.643 201.187 114.643 200.596C114.643 200.004 114.163 199.525 113.572 199.525C112.981 199.525 112.502 200.004 112.502 200.596C112.502 201.187 112.981 201.667 113.572 201.667Z" fill="black"/>
<path opacity="0.1" d="M113.572 205.235C114.163 205.235 114.643 204.755 114.643 204.164C114.643 203.572 114.163 203.093 113.572 203.093C112.981 203.093 112.502 203.572 112.502 204.164C112.502 204.755 112.981 205.235 113.572 205.235Z" fill="black"/>
<path opacity="0.1" d="M114.539 207.269C114.131 207.784 113.696 208.275 113.233 208.741C113.065 208.686 112.913 208.589 112.792 208.46C112.67 208.331 112.582 208.174 112.536 208.003C112.49 207.831 112.487 207.651 112.528 207.479C112.569 207.306 112.651 207.146 112.769 207.013C112.887 206.881 113.035 206.779 113.202 206.718C113.368 206.657 113.547 206.639 113.723 206.664C113.898 206.69 114.065 206.758 114.207 206.864C114.349 206.969 114.463 207.109 114.539 207.269Z" fill="black"/>
<path d="M100.797 194.886H99.9658C98.8176 194.886 97.8867 195.817 97.8867 196.966V240.618C97.8867 241.767 98.8176 242.699 99.9658 242.699H100.797C101.946 242.699 102.877 241.767 102.877 240.618V196.966C102.877 195.817 101.946 194.886 100.797 194.886Z" fill="#54576B"/>
<path d="M114.82 236.276H85.9434C84.4656 236.276 83.2676 237.474 83.2676 238.953V240.021C83.2676 241.5 84.4656 242.699 85.9434 242.699H114.82C116.298 242.699 117.496 241.5 117.496 240.021V238.953C117.496 237.474 116.298 236.276 114.82 236.276Z" fill="#54576B"/>
<path opacity="0.1" d="M100.797 194.886H99.9658C98.8176 194.886 97.8867 195.817 97.8867 196.966V240.618C97.8867 241.767 98.8176 242.699 99.9658 242.699H100.797C101.946 242.699 102.877 241.767 102.877 240.618V196.966C102.877 195.817 101.946 194.886 100.797 194.886Z" fill="black"/>
<path opacity="0.1" d="M114.82 236.276H85.9434C84.4656 236.276 83.2676 237.474 83.2676 238.953V240.021C83.2676 241.5 84.4656 242.699 85.9434 242.699H114.82C116.298 242.699 117.496 241.5 117.496 240.021V238.953C117.496 237.474 116.298 236.276 114.82 236.276Z" fill="black"/>
<path d="M101.51 194.886H100.678C99.5297 194.886 98.5989 195.817 98.5989 196.966V240.618C98.5989 241.767 99.5297 242.699 100.678 242.699H101.51C102.658 242.699 103.589 241.767 103.589 240.618V196.966C103.589 195.817 102.658 194.886 101.51 194.886Z" fill="#54576B"/>
<path d="M115.532 236.276H86.6556C85.1778 236.276 83.9797 237.474 83.9797 238.953V240.021C83.9797 241.5 85.1778 242.699 86.6556 242.699H115.532C117.01 242.699 118.208 241.5 118.208 240.021V238.953C118.208 237.474 117.01 236.276 115.532 236.276Z" fill="#54576B"/>
<path d="M130.817 198.931C128.141 204.758 123.851 209.694 118.457 213.154C113.062 216.615 106.789 218.454 100.381 218.454C93.9739 218.454 87.7008 216.615 82.3062 213.154C76.9116 209.694 72.6219 204.758 69.9459 198.931C66.3999 193.841 63.3005 183.692 63.3005 184.898C63.3005 189.772 64.2597 194.597 66.1232 199.099C67.9866 203.602 70.718 207.693 74.1613 211.138C77.6046 214.584 81.6924 217.318 86.1912 219.183C90.6901 221.048 95.512 222.008 100.381 222.008C105.251 222.008 110.073 221.048 114.572 219.183C119.071 217.318 123.158 214.584 126.602 211.138C130.045 207.693 132.776 203.602 134.64 199.099C136.503 194.597 137.462 189.772 137.462 184.898C137.462 183.692 134.363 193.841 130.817 198.931Z" fill="#54576B"/>
<path d="M100.382 147.785C94.4001 147.787 88.5078 149.237 83.2079 152.012C77.9079 154.787 73.3578 158.805 69.9461 163.722C67.9125 168.12 66.8614 172.909 66.866 177.755C66.8659 178.947 66.9289 180.138 67.0546 181.323C67.8929 173.061 71.7655 165.404 77.9223 159.837C84.0791 154.269 92.0818 151.187 100.38 151.187C108.678 151.187 116.68 154.269 122.837 159.837C128.994 165.404 132.867 173.061 133.705 181.323C133.831 180.138 133.894 178.947 133.894 177.755C133.898 172.909 132.847 168.12 130.813 163.722C127.402 158.805 122.853 154.788 117.553 152.013C112.254 149.238 106.363 147.787 100.382 147.785Z" fill="#54576B"/>
<path opacity="0.1" d="M101.094 200.95C101.881 200.95 102.518 200.312 102.518 199.525C102.518 198.737 101.881 198.099 101.094 198.099C100.307 198.099 99.6692 198.737 99.6692 199.525C99.6692 200.312 100.307 200.95 101.094 200.95Z" fill="black"/>
<path opacity="0.2" d="M167.944 234.85C168.24 234.85 168.48 234.61 168.48 234.314C168.48 234.018 168.24 233.779 167.944 233.779C167.649 233.779 167.409 234.018 167.409 234.314C167.409 234.61 167.649 234.85 167.944 234.85Z" fill="black"/>
<path d="M147.754 245.088C145.626 245.101 143.521 244.639 141.594 243.735C134.409 240.352 130.867 240.78 125.508 241.423C120.485 242.116 115.405 242.301 110.346 241.974C108.935 241.909 107.556 241.529 106.311 240.862C105.065 240.196 103.984 239.259 103.146 238.121C95.1992 227.795 100.516 200.607 100.747 199.455C100.771 199.368 100.827 199.293 100.904 199.245C100.981 199.197 101.073 199.181 101.162 199.198C101.251 199.216 101.33 199.266 101.383 199.34C101.436 199.413 101.459 199.504 101.448 199.594C101.394 199.871 95.9615 227.614 103.712 237.682C104.488 238.74 105.491 239.611 106.646 240.232C107.802 240.852 109.082 241.207 110.392 241.269C115.403 241.591 120.434 241.406 125.408 240.718C130.89 240.055 134.513 239.616 141.882 243.088C153.637 248.625 167.413 234.542 167.548 234.399C167.615 234.34 167.703 234.309 167.792 234.312C167.882 234.314 167.967 234.351 168.031 234.413C168.095 234.475 168.134 234.559 168.139 234.649C168.145 234.738 168.116 234.827 168.06 234.896C167.956 235.019 158.103 245.088 147.754 245.088Z" fill="#DFE6F5"/>
<path d="M160.852 55.604C154.965 44.9887 143.014 37.7102 129.281 37.7102C109.722 37.7102 93.8054 52.4368 93.8054 70.5386H91.2913C91.2913 51.0612 108.328 35.2134 129.262 35.2134C141.382 35.2134 152.193 40.523 159.15 48.7763C159.72 50.6258 160.155 52.5177 160.587 54.4057C160.683 54.8103 160.771 55.2071 160.852 55.604Z" fill="#535461"/>
<path d="M96.5969 60.1083H99.8811V82.8415H96.5969C94.089 82.8415 91.6838 81.8445 89.9105 80.0698C88.1372 78.2951 87.1409 75.8881 87.1409 73.3783V69.5946C87.1379 68.3499 87.3802 67.1169 87.8541 65.9661C88.3279 64.8153 89.0239 63.7693 89.9023 62.8882C90.7807 62.007 91.8241 61.3078 92.9729 60.8308C94.1217 60.3538 95.3532 60.1083 96.5969 60.1083Z" fill="#DFE6F5"/>
<path d="M100.347 60.1275H99.4152C98.1329 60.1275 97.0935 61.1677 97.0935 62.4509V80.5181C97.0935 81.8013 98.1329 82.8415 99.4152 82.8415H100.347C101.629 82.8415 102.669 81.8013 102.669 80.5181V62.4509C102.669 61.1677 101.629 60.1275 100.347 60.1275Z" fill="#535461"/>
<path d="M308.718 223.445C308.718 223.445 302.604 221.372 299.662 226.762C298.886 228.224 298.491 229.858 298.514 231.513C298.537 233.167 298.977 234.79 299.793 236.229C301.718 239.724 305.707 244.263 313.269 243.858C319.668 243.516 321.797 238.63 322.375 234.083C322.596 232.378 322.376 230.645 321.737 229.05C321.097 227.455 320.059 226.05 318.722 224.971C317.384 223.893 315.793 223.175 314.099 222.888C312.406 222.602 310.667 222.755 309.049 223.333L308.718 223.445Z" fill="#003A7A"/>
<path opacity="0.1" d="M301.087 236.715C300.271 235.275 299.831 233.653 299.808 231.998C299.785 230.343 300.18 228.709 300.956 227.248C303.897 221.853 310.012 223.93 310.012 223.93L310.323 223.818C312.655 222.974 315.217 223.032 317.508 223.98C316.244 223.227 314.828 222.764 313.363 222.624C311.899 222.484 310.421 222.671 309.037 223.171L308.726 223.283C308.726 223.283 302.612 221.21 299.67 226.6C298.894 228.062 298.499 229.696 298.522 231.351C298.545 233.006 298.985 234.628 299.801 236.067C301.075 238.379 303.235 241.119 306.731 242.618C304.345 241.204 302.393 239.162 301.087 236.715Z" fill="#F5F5F5"/>
<path opacity="0.2" d="M305.561 226.038C305.561 226.038 307.829 227.822 313.331 226.038H305.561Z" fill="black"/>
<path d="M305.076 213.076C305.076 213.076 308.961 223.607 308.637 226.362L311.717 226.038C311.717 226.038 306.516 216.802 307.829 213.076H305.076Z" fill="#003A7A"/>
<path opacity="0.2" d="M305.076 213.076C305.076 213.076 308.961 223.607 308.637 226.362L311.717 226.038C311.717 226.038 306.516 216.802 307.829 213.076H305.076Z" fill="black"/>
<path d="M320.935 213.954C320.935 213.954 314.821 210.826 312.079 213.411C309.338 215.997 308.922 222.605 308.922 222.605C308.922 222.605 318.898 223.98 320.935 213.954Z" fill="#003A7A"/>
<path opacity="0.1" d="M320.935 213.954C320.935 213.954 314.821 210.826 312.079 213.411C309.338 215.997 308.922 222.605 308.922 222.605C308.922 222.605 318.898 223.98 320.935 213.954Z" fill="#F5F5F5"/>
<path d="M308.926 222.605C308.926 222.605 310.531 214.933 320.934 213.955" stroke="#003A7A" stroke-miterlimit="10"/>
</g>
<defs>
<linearGradient id="paint0_linear" x1="228.561" y1="271.986" x2="228.561" y2="25.4189" gradientUnits="userSpaceOnUse">
<stop stop-color="#808080" stop-opacity="0.25"/>
<stop offset="0.54" stop-color="#808080" stop-opacity="0.12"/>
<stop offset="1" stop-color="#808080" stop-opacity="0.1"/>
</linearGradient>
<clipPath id="clip0">
<rect width="439" height="299" fill="white"/>
</clipPath>
</defs>
</svg>
