<svg width="89" height="102" viewBox="0 0 89 102" fill="none" xmlns="http://www.w3.org/2000/svg">
<path d="M59.2948 68.6104C58.4574 68.5331 57.7267 67.8011 57.6494 66.9637L55.5468 43.1317H34.3507L32.2641 66.9637C32.1868 67.8011 31.4401 68.5331 30.6014 68.6104C30.0387 68.6558 29.3374 68.7171 28.5308 68.7931L28.5454 68.8077C28.6214 68.9757 29.2614 70.3011 30.4654 71.9771C31.1041 72.8918 31.8827 73.8971 32.7814 74.9344C33.6494 75.9837 34.6401 77.0517 35.6614 78.0731C36.6828 79.1104 37.7641 80.0837 38.8161 80.9531C39.8521 81.8357 40.8574 82.6291 41.7721 83.2531C43.5534 84.5331 44.9254 85.1891 44.9414 85.2051H44.9574L44.9721 85.1891C45.1241 85.0971 46.4494 84.4584 48.1254 83.2531C49.0401 82.6291 50.0614 81.8357 51.0974 80.9531C52.1348 80.0837 53.2174 79.1104 54.2374 78.0731C55.2734 77.0517 56.2468 75.9837 57.1308 74.9344C58.0148 73.8971 58.7921 72.8918 59.4334 71.9771C60.6347 70.3011 61.2921 68.9757 61.3681 68.8077L61.3827 68.7931C60.5601 68.7171 59.8588 68.6558 59.2948 68.6104" fill="#FBE68A"/>
<path d="M68.0744 32.5906C66.3344 31.5239 63.7824 33.5812 62.3717 37.1866C60.9651 40.7946 61.2331 44.5826 62.9704 45.6506C64.7104 46.7173 67.2624 44.6599 68.6704 41.0532C70.0797 37.4479 69.8117 33.6586 68.0744 32.5906Z" fill="#FBE68A"/>
<path d="M21.8281 32.5906C23.5667 31.5239 26.1201 33.5812 27.5294 37.1866C28.9374 40.7946 28.6707 44.5839 26.932 45.6506C25.192 46.7173 22.6401 44.6599 21.2307 41.0532C19.8214 37.4479 20.0894 33.6586 21.8281 32.5906Z" fill="#FBE68A"/>
<path d="M68.576 26.152C68.576 42.8507 57.9986 61.708 44.9506 61.708C31.904 61.708 21.3267 42.8507 21.3267 26.152C21.3267 9.45199 31.904 1.23334 44.9506 1.23334C57.9986 1.23334 68.576 9.45199 68.576 26.152Z" fill="#FBE68A"/>
<path d="M56.8361 57.7546L56.7134 56.3573C56.7148 56.356 56.7148 56.356 56.7161 56.3546L56.8388 57.7533C56.8374 57.7533 56.8374 57.7533 56.8361 57.7546ZM33.0708 57.74C33.0694 57.7387 33.0681 57.7373 33.0654 57.7347L33.1868 56.3546C33.1881 56.356 33.1908 56.3586 33.1921 56.36L33.0708 57.74Z" fill="#31526B"/>
<path d="M44.9503 63.2319C40.6156 63.2319 36.561 61.1333 33.0703 57.7399L33.1917 56.3599C36.5863 59.6119 40.513 61.6266 44.6983 61.7053C44.6996 61.7053 44.701 61.7053 44.7023 61.7053C44.7143 61.7053 44.729 61.7066 44.741 61.7066C44.745 61.7066 44.749 61.7066 44.7516 61.7066C44.757 61.7066 44.7636 61.7066 44.769 61.7066C44.7756 61.7066 44.781 61.7066 44.7863 61.7066C44.793 61.7066 44.7983 61.7066 44.805 61.7066C44.813 61.7066 44.821 61.7066 44.8303 61.7066C44.8317 61.7066 44.833 61.7066 44.8356 61.7066C44.837 61.7066 44.841 61.7066 44.8423 61.7066C44.8517 61.7066 44.8596 61.7066 44.869 61.7079C44.8703 61.7079 44.8716 61.7079 44.873 61.7079C44.8743 61.7079 44.8743 61.7079 44.8757 61.7079C44.8863 61.7079 44.897 61.7079 44.9076 61.7079C44.909 61.7079 44.9103 61.7079 44.9117 61.7079C44.913 61.7079 44.9156 61.7079 44.917 61.7079C44.9276 61.7079 44.937 61.7079 44.9476 61.7079H44.949C44.9503 61.7079 44.9503 61.7079 44.9503 61.7079C44.9623 61.7079 44.973 61.7079 44.985 61.7079C44.9876 61.7079 44.9903 61.7079 44.993 61.7079C45.0037 61.7079 45.0157 61.7079 45.0263 61.7079H45.0303C45.0397 61.7066 45.0503 61.7066 45.0597 61.7066C45.0637 61.7066 45.0663 61.7066 45.0703 61.7066C45.081 61.7066 45.0903 61.7066 45.101 61.7066C45.105 61.7066 45.109 61.7066 45.113 61.7066C45.1197 61.7066 45.1263 61.7066 45.133 61.7066C45.1383 61.7066 45.1423 61.7066 45.1476 61.7066C45.1543 61.7066 45.161 61.7066 45.1663 61.7066C45.1756 61.7066 45.185 61.7053 45.1957 61.7053C45.1983 61.7053 45.2023 61.7053 45.205 61.7053C49.3916 61.6266 53.3183 59.6106 56.713 56.3573L56.8356 57.7546C53.3436 61.1466 49.285 63.2319 44.9503 63.2319Z" fill="#E2CF7B"/>
<path d="M44.9172 61.708C44.9159 61.708 44.9132 61.708 44.9119 61.708C44.9132 61.708 44.9145 61.708 44.9159 61.708H44.9172ZM44.9852 61.708C44.9879 61.708 44.9905 61.708 44.9932 61.708C44.9905 61.708 44.9879 61.708 44.9852 61.708ZM44.8759 61.708C44.8745 61.708 44.8745 61.708 44.8732 61.708C44.8745 61.708 44.8732 61.708 44.8745 61.708H44.8759ZM45.0265 61.708C45.0279 61.708 45.0292 61.708 45.0305 61.708H45.0265ZM44.8425 61.7067C44.8412 61.7067 44.8372 61.7067 44.8359 61.7067C44.8372 61.7067 44.8385 61.7067 44.8412 61.7067C44.8412 61.7067 44.8412 61.7067 44.8425 61.7067ZM45.0599 61.7067C45.0639 61.7067 45.0665 61.7067 45.0705 61.7067C45.0665 61.7067 45.0639 61.7067 45.0599 61.7067ZM44.8052 61.7067C44.7985 61.7067 44.7932 61.7067 44.7865 61.7067C44.7879 61.7067 44.7879 61.7067 44.7892 61.7067C44.7919 61.7067 44.7959 61.7067 44.7999 61.7067C44.8012 61.7067 44.8025 61.7067 44.8052 61.7067V61.7067ZM45.1012 61.7067C45.1052 61.7067 45.1092 61.7067 45.1132 61.7067C45.1092 61.7067 45.1052 61.7067 45.1012 61.7067ZM44.7692 61.7067C44.7639 61.7067 44.7572 61.7067 44.7519 61.7067C44.7532 61.7067 44.7532 61.7067 44.7532 61.7067C44.7572 61.7067 44.7625 61.7067 44.7665 61.7067C44.7679 61.7067 44.7692 61.7067 44.7692 61.7067V61.7067ZM45.1332 61.7067C45.1385 61.7067 45.1439 61.7067 45.1479 61.7067C45.1425 61.7067 45.1385 61.7067 45.1332 61.7067ZM44.7412 61.7067C44.7292 61.7067 44.7145 61.7053 44.7025 61.7053C44.7039 61.7053 44.7052 61.7053 44.7065 61.7053C44.7145 61.7053 44.7225 61.7053 44.7305 61.7067C44.7345 61.7067 44.7385 61.7067 44.7412 61.7067ZM45.1665 61.7067C45.1759 61.7067 45.1852 61.7053 45.1959 61.7053C45.1852 61.7053 45.1759 61.7067 45.1665 61.7067ZM44.6985 61.7053C40.5132 61.6267 36.5865 59.612 33.1919 56.36C33.1905 56.3587 33.1879 56.356 33.1865 56.3547C36.5825 59.6093 40.5079 61.6267 44.6959 61.7053C44.6972 61.7053 44.6972 61.7053 44.6985 61.7053ZM45.2052 61.7053C49.3945 61.6267 53.3185 59.6 56.7145 56.344L56.7159 56.3547C56.7145 56.356 56.7145 56.356 56.7132 56.3573C53.3185 59.6107 49.3919 61.6267 45.2052 61.7053Z" fill="#E2CF7B"/>
<path d="M87.1825 76.1066C91.1425 81.2133 87.1825 101.905 87.1825 101.905H2.71588C2.71588 101.905 -1.22945 81.2133 2.71588 76.1066C6.25188 71.5199 21.4906 69.5079 28.5306 68.7933L28.5452 68.8079C28.6212 68.9759 29.2612 70.3013 30.4652 71.9773C31.1052 72.8919 31.8825 73.8973 32.7812 74.9346C33.6492 75.9853 34.6399 77.0519 35.6612 78.0733C36.6826 79.1106 37.7639 80.0853 38.8159 80.9533C39.8519 81.8359 40.8572 82.6293 41.7719 83.2533C43.5532 84.5333 44.9252 85.1893 44.9412 85.2053H44.9572L44.9719 85.1893C45.1239 85.0973 46.4492 84.4586 48.1252 83.2533C49.0399 82.6293 50.0612 81.8359 51.0972 80.9533C52.1346 80.0853 53.2172 79.1106 54.2372 78.0733C55.2732 77.0519 56.2465 75.9853 57.1319 74.9346C58.0145 73.8973 58.7919 72.8919 59.4332 71.9773C60.6345 70.3013 61.2919 68.9759 61.3679 68.8079L61.3825 68.7933C68.4079 69.5079 83.6465 71.5199 87.1825 76.1066Z" fill="#F14E20"/>
<path d="M21.6385 31.2346C21.6358 31.208 21.6318 31.1813 21.6291 31.1533C21.6318 31.1813 21.6358 31.208 21.6385 31.2346ZM21.6225 31.1013C21.6211 31.084 21.6185 31.0693 21.6171 31.0519C21.6185 31.0693 21.6211 31.084 21.6225 31.1013ZM21.6158 31.0373C21.6145 31.0333 21.6145 31.0293 21.6145 31.0266C21.6145 31.0293 21.6145 31.0333 21.6158 31.0373ZM21.6065 30.9613C21.6038 30.9399 21.6011 30.92 21.5998 30.9C21.6011 30.92 21.6038 30.9399 21.6065 30.9613ZM21.5985 30.8879C21.5691 30.6279 21.5411 30.368 21.5171 30.1066C21.5411 30.368 21.5691 30.6279 21.5985 30.8879ZM21.5158 30.0946C21.5158 30.0933 21.5158 30.0906 21.5145 30.0879C21.5158 30.0906 21.5158 30.0933 21.5158 30.0946ZM21.5065 29.9959C21.5065 29.9906 21.5051 29.9866 21.5051 29.9826C21.5051 29.9866 21.5065 29.9906 21.5065 29.9959ZM21.4905 29.8133C21.4825 29.7293 21.4758 29.6439 21.4678 29.5613C21.4758 29.6453 21.4825 29.7293 21.4905 29.8133ZM21.4651 29.5226C21.4638 29.5079 21.4625 29.4933 21.4611 29.4786C21.4625 29.4933 21.4638 29.5079 21.4651 29.5226ZM21.4491 29.3133C21.4345 29.136 21.4225 28.9573 21.4105 28.78C21.4225 28.9573 21.4345 29.136 21.4491 29.3133ZM21.4078 28.7199C21.4065 28.7133 21.4065 28.7039 21.4065 28.6959C21.4065 28.7039 21.4065 28.7133 21.4078 28.7199ZM21.3998 28.5973C21.3958 28.5279 21.3918 28.4599 21.3878 28.3906C21.3918 28.4586 21.3958 28.5293 21.3998 28.5973ZM21.3838 28.3146C21.3811 28.2693 21.3785 28.224 21.3771 28.1786C21.3785 28.224 21.3811 28.2693 21.3838 28.3146ZM21.3745 28.144C21.3731 28.1093 21.3718 28.0733 21.3705 28.0386C21.3718 28.0733 21.3731 28.1093 21.3745 28.144ZM21.3505 27.5519C21.3505 27.5399 21.3491 27.5293 21.3491 27.5173C21.3491 27.5293 21.3505 27.5399 21.3505 27.5519ZM44.8691 1.23328C44.8705 1.23328 44.8731 1.23328 44.8731 1.23328C44.8718 1.23328 44.8718 1.23328 44.8691 1.23328ZM44.9011 1.23328C44.9051 1.23328 44.9091 1.23328 44.9118 1.23328C44.9078 1.23328 44.9051 1.23328 44.9011 1.23328ZM44.9345 1.23328C44.9398 1.23328 44.9438 1.23328 44.9491 1.23328C44.9451 1.23328 44.9385 1.23328 44.9345 1.23328Z" fill="#829EAD"/>
<path d="M44.9491 61.708H44.9478C44.9424 61.708 44.9384 61.708 44.9331 61.708C44.9384 61.708 44.9451 61.708 44.9491 61.708ZM44.9078 61.708C44.9064 61.708 44.9024 61.708 44.9011 61.708C44.9038 61.708 44.9064 61.708 44.9078 61.708ZM44.8691 61.708C44.8678 61.708 44.8651 61.708 44.8638 61.7067C44.8651 61.708 44.8678 61.708 44.8691 61.708ZM44.8304 61.7067H44.8291C44.8304 61.7067 44.8291 61.7067 44.8304 61.7067Z" fill="#FDF2BB"/>
<path d="M44.9493 61.708C44.9453 61.708 44.9386 61.708 44.9333 61.708C44.928 61.708 44.9213 61.708 44.916 61.708C44.9133 61.708 44.9107 61.708 44.908 61.708C44.9067 61.708 44.904 61.708 44.9013 61.708C44.892 61.708 44.884 61.708 44.8747 61.708C44.8733 61.708 44.872 61.708 44.8693 61.708C44.868 61.708 44.8653 61.708 44.864 61.7067C44.856 61.7067 44.8493 61.7067 44.8413 61.7067C44.8373 61.7067 44.8333 61.7067 44.8307 61.7067C44.8293 61.7067 44.8307 61.7067 44.8293 61.7067C44.82 61.7067 44.8093 61.7067 44.8 61.7067C44.796 61.7067 44.7933 61.7067 44.7893 61.7067C44.7813 61.7067 44.7746 61.7067 44.7666 61.7067C44.7626 61.7067 44.7573 61.7067 44.7533 61.7067C44.7453 61.7067 44.7387 61.7067 44.7307 61.7067C44.7227 61.7053 44.7147 61.7053 44.7067 61.7053C44.704 61.7053 44.6987 61.7053 44.696 61.7053C40.508 61.6253 36.584 59.5987 33.188 56.344L33.1867 56.3547C27.16 50.5773 22.8067 40.8987 21.6387 31.2347C21.636 31.208 21.632 31.1813 21.6293 31.1533C21.6267 31.136 21.6253 31.1187 21.6227 31.1013C21.6213 31.084 21.6187 31.0693 21.6173 31.052C21.616 31.048 21.616 31.0413 21.616 31.0373C21.6146 31.0333 21.6146 31.0293 21.6146 31.0267C21.612 31.004 21.6093 30.9827 21.6067 30.9613C21.604 30.94 21.6013 30.92 21.6 30.9C21.5987 30.896 21.5986 30.892 21.5986 30.888C21.5693 30.628 21.5413 30.368 21.5173 30.1067C21.516 30.104 21.516 30.0987 21.516 30.0947C21.516 30.0933 21.516 30.0907 21.5146 30.088C21.512 30.0573 21.5093 30.0267 21.5067 29.996C21.5067 29.9907 21.5053 29.9867 21.5053 29.9827C21.5 29.9267 21.4947 29.8693 21.4907 29.8133C21.4827 29.7293 21.476 29.6453 21.468 29.5613C21.468 29.548 21.4666 29.536 21.4653 29.5227C21.464 29.508 21.4627 29.4933 21.4613 29.4787C21.4573 29.4227 21.4533 29.3693 21.4493 29.3133C21.4346 29.136 21.4227 28.9573 21.4107 28.78C21.4093 28.7587 21.4093 28.7413 21.408 28.72C21.4067 28.7133 21.4067 28.704 21.4067 28.696C21.404 28.6627 21.4013 28.6293 21.4 28.5973C21.396 28.5293 21.392 28.4587 21.388 28.3907C21.3867 28.3653 21.3853 28.34 21.384 28.3147C21.3813 28.2693 21.3787 28.224 21.3773 28.1787C21.376 28.168 21.376 28.156 21.3747 28.144C21.3733 28.1093 21.372 28.0733 21.3707 28.0387C21.3627 27.876 21.356 27.7147 21.3507 27.552C21.3507 27.54 21.3493 27.5294 21.3493 27.5174C21.3333 27.0614 21.3267 26.6053 21.3267 26.152C21.3267 9.48666 31.8587 1.26667 44.8693 1.23334C44.872 1.23334 44.872 1.23334 44.8733 1.23334C44.8827 1.23334 44.892 1.23334 44.9013 1.23334C44.9053 1.23334 44.908 1.23334 44.912 1.23334C44.9187 1.23334 44.9267 1.23334 44.9347 1.23334C44.9387 1.23334 44.9453 1.23334 44.9493 1.23334V61.708" fill="#FDF2BB"/>
<path d="M44.9492 61.708H44.9479H44.9492ZM44.9119 61.708C44.9106 61.708 44.9092 61.708 44.9079 61.708C44.9092 61.708 44.9106 61.708 44.9119 61.708ZM44.8732 61.708C44.8719 61.708 44.8706 61.708 44.8692 61.708C44.8719 61.708 44.8719 61.708 44.8732 61.708ZM44.8359 61.7067C44.8332 61.7067 44.8319 61.7067 44.8306 61.7067C44.8319 61.7067 44.8332 61.7067 44.8359 61.7067Z" fill="#EEE3B0"/>
<path d="M44.9159 61.708C44.9145 61.708 44.9132 61.708 44.9119 61.708C44.9105 61.708 44.9092 61.708 44.9079 61.708C44.9105 61.708 44.9132 61.708 44.9159 61.708ZM44.8745 61.708C44.8732 61.708 44.8745 61.708 44.8732 61.708C44.8719 61.708 44.8719 61.708 44.8692 61.708C44.8719 61.708 44.8732 61.708 44.8745 61.708ZM44.8412 61.7067C44.8385 61.7067 44.8372 61.7067 44.8359 61.7067C44.8332 61.7067 44.8319 61.7067 44.8305 61.7067C44.8332 61.7067 44.8372 61.7067 44.8412 61.7067ZM44.7999 61.7067C44.7959 61.7067 44.7919 61.7067 44.7892 61.7067C44.7932 61.7067 44.7959 61.7067 44.7999 61.7067ZM44.7665 61.7067C44.7625 61.7067 44.7572 61.7067 44.7532 61.7067C44.7572 61.7067 44.7625 61.7067 44.7665 61.7067ZM44.7305 61.7067C44.7225 61.7053 44.7145 61.7053 44.7065 61.7053C44.7145 61.7053 44.7225 61.7053 44.7305 61.7067ZM44.6959 61.7053C40.5079 61.6267 36.5825 59.6093 33.1865 56.3547L33.1879 56.344C36.5839 59.5987 40.5079 61.6253 44.6959 61.7053Z" fill="#EEE3B0"/>
<path d="M68.8277 23.3132C68.7597 22.2919 68.625 21.2026 68.4877 20.0759C68.0664 17.8559 67.509 15.4359 66.3704 13.0639C65.2437 10.7052 63.6597 8.35857 61.5104 6.42923C59.3837 4.48657 56.7637 2.95057 53.9117 1.96257C51.0477 0.965234 48.029 0.498578 44.9197 0.473244L42.6904 0.57191C41.937 0.637243 41.161 0.758588 40.3997 0.850588C38.8904 1.11059 37.417 1.46257 35.9877 1.96123C33.1384 2.94923 30.5184 4.48657 28.3904 6.42923C26.2437 8.35857 24.6544 10.7026 23.5291 13.0639C22.3917 15.4346 21.8331 17.8559 21.4131 20.0759C21.2757 21.1986 21.1424 22.2746 21.073 23.2999C21.0637 24.3319 21.0557 25.3106 21.0464 26.2306C21.2131 28.0386 21.2904 29.6172 21.4717 30.9119C21.9664 33.4786 22.2504 34.9466 22.2504 34.9466L24.3797 35.3652C24.3797 35.3652 24.9837 16.3213 32.1224 13.6493C39.261 10.9759 44.9504 13.6493 44.9504 13.6493C44.9504 13.6493 50.6411 10.9759 57.7797 13.6493C64.9184 16.3213 65.5224 35.3652 65.5224 35.3652L67.6517 34.9466C67.6517 34.9466 67.9344 33.4852 68.4264 30.9252C68.6077 29.6346 68.6877 28.0426 68.8544 26.2159C68.845 25.3039 68.8357 24.3359 68.8277 23.3132" fill="#87661E"/>
</svg>
