<svg width="89" height="104" viewBox="0 0 89 104" fill="none" xmlns="http://www.w3.org/2000/svg">
<path d="M77.6936 53.5548C70.5096 45.3641 74.0389 13.7855 63.8442 6.23759C53.6895 -1.27841 36.2122 -1.27841 26.0589 6.23759C15.8616 13.7855 19.3922 45.3641 12.2069 53.5548C4.9642 61.8136 11.8495 79.1069 11.8495 79.1069H44.9442H44.9589H78.0535C78.0535 79.1069 84.9362 61.8136 77.6936 53.5548" fill="#F8BA0B"/>
<path d="M73.6441 72.5812C73.0974 72.4708 72.5761 72.3708 72.0601 72.2735C69.9934 71.8948 67.9507 71.587 66.0814 71.3402C63.6854 71.023 61.5814 70.8083 60.0921 70.6708C60.7934 70.7359 60.1254 70.6708 59.3 70.6C58.4627 70.5296 57.7201 69.8026 57.6454 68.9656L55.5534 45.1214H34.3494L32.2534 68.9656C32.1801 69.8026 31.6054 70.5187 30.964 70.5708C30.64 70.599 30.2507 70.6323 29.8107 70.6708C28.3161 70.8083 26.2161 71.023 23.8187 71.3402C21.9507 71.587 19.9067 71.8948 17.8427 72.2735C17.3214 72.3708 16.8027 72.4708 16.2867 72.576C10.4027 73.7599 4.70807 75.5239 2.71473 78.1015C-1.2346 83.2042 2.71473 103.906 2.71473 103.906H87.1854C87.1854 103.906 91.1347 83.2042 87.1854 78.1015C85.1921 75.5239 79.4987 73.7599 73.6441 72.5812" fill="#FBE68A"/>
<path d="M68.0745 34.587C66.3332 33.5187 63.7812 35.5776 62.3718 39.1828C60.9638 42.788 61.2318 46.576 62.9692 47.6454C64.7092 48.711 67.2612 46.6547 68.6705 43.0468C70.0785 39.4416 69.8132 35.6547 68.0745 34.587" fill="#FBE68A"/>
<path d="M21.828 34.587C23.5667 33.5187 26.12 35.5776 27.5267 39.1828C28.9373 42.788 28.6706 46.576 26.9306 47.6454C25.1907 48.711 22.6387 46.6547 21.2307 43.0468C19.8213 39.4416 20.088 35.6547 21.828 34.587" fill="#FBE68A"/>
<path d="M33.064 59.7297H56.7364V58.3469H33.064V59.7297Z" fill="#DEA813"/>
<path d="M44.9508 65.2251C40.6121 65.2251 36.5588 63.1262 33.0654 59.7292L33.1868 58.3475C36.5815 61.6022 40.5081 63.6199 44.6961 63.6986C44.6988 63.6986 44.7001 63.6986 44.7028 63.6986C44.7094 63.6986 44.7161 63.6986 44.7241 63.6986C44.7268 63.6986 44.7294 63.6986 44.7321 63.6986C44.7414 63.6986 44.7508 63.6986 44.7615 63.6996C44.7668 63.6996 44.7721 63.6996 44.7774 63.6996C44.7828 63.6996 44.7868 63.6996 44.7908 63.6996C44.7975 63.6996 44.8028 63.6996 44.8081 63.6996C44.8121 63.6996 44.8175 63.6996 44.8215 63.6996C44.8308 63.6996 44.8401 63.6996 44.8481 63.6996C44.8494 63.6996 44.8494 63.6996 44.8494 63.6996C44.8601 63.6996 44.8694 63.6996 44.8801 63.6996C44.8828 63.6996 44.8855 63.6996 44.8895 63.7011C44.8961 63.7011 44.9041 63.7011 44.9108 63.7011C44.9148 63.7011 44.9174 63.7011 44.9201 63.7011C44.9308 63.7011 44.9401 63.7011 44.9508 63.7011H44.9521C44.9614 63.7011 44.9708 63.7011 44.9801 63.7011C44.9841 63.7011 44.9868 63.7011 44.9895 63.7011C44.9975 63.7011 45.0041 63.7011 45.0121 63.7011C45.0148 63.6996 45.0175 63.6996 45.0215 63.6996C45.0308 63.6996 45.0401 63.6996 45.0508 63.6996C45.0521 63.6996 45.0535 63.6996 45.0548 63.6996C45.0628 63.6996 45.0708 63.6996 45.0788 63.6996C45.0841 63.6996 45.0881 63.6996 45.0935 63.6996C45.0988 63.6996 45.1028 63.6996 45.1081 63.6996C45.1134 63.6996 45.1188 63.6996 45.1241 63.6996C45.1281 63.6996 45.1308 63.6996 45.1348 63.6996C45.1561 63.6986 45.1788 63.6986 45.2014 63.6986C49.3894 63.621 53.3188 61.6022 56.7134 58.3475L56.7361 58.6038L56.8361 59.7475C53.3468 63.1412 49.2854 65.2251 44.9508 65.2251" fill="#E2CF7B"/>
<path d="M66.0174 49.3783C66.0174 52.0183 64.6507 54.1584 62.968 54.1584C61.284 54.1584 59.9214 52.0183 59.9214 49.3783C59.9214 46.7387 61.284 44.5986 62.968 44.5986C64.6507 44.5986 66.0174 46.7387 66.0174 49.3783Z" fill="#365D79"/>
<path d="M29.9789 49.3783C29.9789 52.0183 28.6149 54.1584 26.9309 54.1584C25.2483 54.1584 23.8843 52.0183 23.8843 49.3783C23.8843 46.7387 25.2483 44.5986 26.9309 44.5986C28.6149 44.5986 29.9789 46.7387 29.9789 49.3783Z" fill="#365D79"/>
<path d="M44.9505 3.22757C31.9039 3.22757 21.3252 11.4462 21.3252 28.1448C21.3252 30.1796 21.4839 32.2448 21.7839 34.3052H21.9652C21.9652 34.3052 21.9652 29.641 26.9305 28.0233C32.2425 26.2957 36.1705 22.1957 39.0012 17.7676V17.7702C39.0012 17.7702 45.1812 26.0718 57.3892 24.453C63.7105 23.6156 67.9358 34.3052 67.9358 34.3052H68.1172C68.4145 32.2448 68.5745 30.1796 68.5745 28.1448C68.5745 11.4462 57.9972 3.22757 44.9505 3.22757Z" fill="#F8BA0B"/>
<path d="M67.9362 34.3052C67.9362 34.3052 63.7108 23.6156 57.3895 24.4531C45.1815 26.0719 39.0015 17.7703 39.0015 17.7703V17.7676C36.1708 22.1957 32.2428 26.2957 26.9308 28.0233C21.9655 29.6411 21.9655 34.3052 21.9655 34.3052H21.7842C23.9415 49.1567 33.4922 63.7009 44.9508 63.7009C56.4082 63.7009 65.9602 49.1567 68.1175 34.3052H67.9362" fill="#FBE68A"/>
<path d="M44.9519 63.7009H44.9505C44.9505 63.7009 44.9505 63.7009 44.9519 63.7009ZM44.9199 63.7009C44.9172 63.7009 44.9145 63.7009 44.9105 63.7009C44.9145 63.7009 44.9172 63.7009 44.9199 63.7009ZM44.8892 63.7009C44.8852 63.6995 44.8825 63.6995 44.8799 63.6995C44.8825 63.6995 44.8852 63.6995 44.8892 63.7009ZM44.8492 63.6995C44.8492 63.6995 44.8492 63.6995 44.8479 63.6995C44.8492 63.6995 44.8492 63.6995 44.8492 63.6995ZM44.8212 63.6995C44.8172 63.6995 44.8118 63.6995 44.8078 63.6995C44.8118 63.6995 44.8172 63.6995 44.8212 63.6995ZM44.7905 63.6995C44.7865 63.6995 44.7825 63.6995 44.7772 63.6995C44.7825 63.6995 44.7865 63.6995 44.7905 63.6995ZM44.7612 63.6995C44.7505 63.6984 44.7412 63.6984 44.7318 63.6984C44.7412 63.6984 44.7505 63.6984 44.7612 63.6995ZM44.7239 63.6984C44.7159 63.6984 44.7092 63.6984 44.7025 63.6984C44.7092 63.6984 44.7159 63.6984 44.7239 63.6984ZM44.6959 63.6984C40.5079 63.6197 36.5812 61.602 33.1865 58.3473C36.5812 61.602 40.5079 63.6197 44.6959 63.6984Z" fill="#EEE3B0"/>
<path d="M44.9521 22.4651C41.0095 20.4558 39.0161 17.7916 39.0015 17.7719C39.0161 17.7916 41.0095 20.4558 44.9521 22.4651Z" fill="#FAD852"/>
<path d="M44.9521 22.4651C41.0095 20.4558 39.0161 17.7916 39.0015 17.7719C39.0175 17.7916 41.0135 20.4506 44.9521 22.4594V22.4651Z" fill="#FAD852"/>
<path d="M44.9508 63.7009C44.9402 63.7009 44.9308 63.7009 44.9202 63.7009C44.9175 63.7009 44.9148 63.7009 44.9108 63.7009C44.9042 63.7009 44.8962 63.7009 44.8895 63.7009C44.8855 63.6995 44.8828 63.6995 44.8802 63.6995C44.8695 63.6995 44.8602 63.6995 44.8495 63.6995C44.8495 63.6995 44.8495 63.6995 44.8482 63.6995C44.8402 63.6995 44.8308 63.6995 44.8215 63.6995C44.8175 63.6995 44.8122 63.6995 44.8082 63.6995C44.8028 63.6995 44.7975 63.6995 44.7909 63.6995C44.7869 63.6995 44.7828 63.6995 44.7775 63.6995C44.7722 63.6995 44.7655 63.6995 44.7615 63.6995C44.7509 63.6984 44.7415 63.6984 44.7322 63.6984C44.7295 63.6984 44.7269 63.6984 44.7242 63.6984C44.7162 63.6984 44.7095 63.6984 44.7028 63.6984C44.7002 63.6984 44.6989 63.6984 44.6962 63.6984C40.5082 63.6197 36.5815 61.602 33.1868 58.3473C31.6162 56.8411 30.1588 55.0687 28.8415 53.102C27.3482 50.8719 26.0362 48.3891 24.9428 45.7557C23.4415 42.1353 22.3535 38.2301 21.7842 34.3052H21.9655C21.9655 34.3052 21.9655 29.6411 26.9308 28.0233C32.2428 26.2957 36.1708 22.1957 39.0015 17.7676V17.7703C39.0015 17.7703 39.0015 17.7703 39.0015 17.7719C39.0162 17.7916 41.0095 20.4557 44.9522 22.4651V63.7009C44.9508 63.7009 44.9508 63.7009 44.9508 63.7009Z" fill="#FDF2BB"/>
<path d="M87.1854 78.101C85.1921 75.5234 79.4987 73.7594 73.6441 72.5807C73.0974 72.4703 72.5761 72.3703 72.0601 72.273C70.1427 71.9234 68.2614 71.637 66.5067 71.401H66.0187C65.9561 71.461 65.8374 71.5797 65.6067 71.7771C65.2974 72.025 64.844 72.4542 64.2654 72.8703C63.1094 73.7411 61.4601 74.8089 59.4761 75.7558C57.4961 76.7053 55.1854 77.5474 52.7081 78.1078C50.2334 78.6797 47.5907 78.9542 44.9507 78.9567C42.3081 78.9438 39.6681 78.6651 37.1907 78.0901C34.7147 77.5234 32.4041 76.6797 30.4227 75.7343C28.4414 74.7891 26.7907 73.7261 25.6334 72.8625C25.0574 72.4474 24.6041 72.0225 24.2934 71.7755C24.0654 71.5782 23.9441 71.461 23.8814 71.401H23.3934C21.6374 71.637 19.7547 71.9234 17.8427 72.273C17.3214 72.3703 16.8027 72.4703 16.2867 72.5755C10.4027 73.7594 4.70807 75.5234 2.71473 78.101C-1.2346 83.2037 2.71473 103.905 2.71473 103.905H87.1854C87.1854 103.905 91.1347 83.2037 87.1854 78.101" fill="#365D79"/>
</svg>
